<svg xmlns="http://www.w3.org/2000/svg" xmlns:xlink="http://www.w3.org/1999/xlink" width="150" zoomAndPan="magnify" viewBox="0 0 112.5 112.499997" height="150" preserveAspectRatio="xMidYMid meet" version="1.0"><defs><g/><clipPath id="id1"><path d="M 5.632812 38.726562 L 106.867188 38.726562 L 106.867188 70.226562 L 5.632812 70.226562 Z M 5.632812 38.726562 " clip-rule="nonzero"/></clipPath><clipPath id="id2"><path d="M 17.113281 66.328125 L 95.113281 66.328125 L 95.113281 73.828125 L 17.113281 73.828125 Z M 17.113281 66.328125 " clip-rule="nonzero"/></clipPath></defs><g clip-path="url(#id1)"><path stroke-linecap="butt" transform="matrix(0.75, 0, 0, 0.751398, 5.631553, 38.727261)" fill="none" stroke-linejoin="miter" d="M 0.00167918 -0.000929312 L 134.980859 -0.000929312 L 134.980859 41.92095 L 0.00167918 41.92095 L 0.00167918 -0.000929312 " stroke="#fcffe7" stroke-width="2" stroke-opacity="1" stroke-miterlimit="4"/></g><g fill="#fcffe7" fill-opacity="1"><g transform="translate(9.910828, 56.76776)"><g><path d="M 9.03125 -0.15625 C 9.070312 -0.15625 9.09375 -0.128906 9.09375 -0.078125 C 9.09375 -0.0234375 9.070312 0 9.03125 0 C 8.863281 0 8.601562 -0.0078125 8.25 -0.03125 C 7.875 -0.0390625 7.609375 -0.046875 7.453125 -0.046875 C 7.242188 -0.046875 6.988281 -0.0390625 6.6875 -0.03125 C 6.40625 -0.0078125 6.175781 0 6 0 C 5.96875 0 5.953125 -0.0234375 5.953125 -0.078125 C 5.953125 -0.128906 5.96875 -0.15625 6 -0.15625 C 6.21875 -0.15625 6.375 -0.175781 6.46875 -0.21875 C 6.570312 -0.269531 6.625 -0.351562 6.625 -0.46875 C 6.625 -0.613281 6.539062 -0.851562 6.375 -1.1875 L 5.0625 -3.765625 L 2.828125 -3.765625 L 1.921875 -1.78125 C 1.816406 -1.539062 1.765625 -1.316406 1.765625 -1.109375 C 1.765625 -0.804688 1.867188 -0.570312 2.078125 -0.40625 C 2.296875 -0.238281 2.585938 -0.15625 2.953125 -0.15625 C 2.992188 -0.15625 3.015625 -0.128906 3.015625 -0.078125 C 3.015625 -0.0234375 2.992188 0 2.953125 0 C 2.796875 0 2.578125 -0.0078125 2.296875 -0.03125 C 1.972656 -0.0390625 1.691406 -0.046875 1.453125 -0.046875 C 1.234375 -0.046875 0.960938 -0.0390625 0.640625 -0.03125 C 0.359375 -0.0078125 0.128906 0 -0.046875 0 C -0.078125 0 -0.09375 -0.0234375 -0.09375 -0.078125 C -0.09375 -0.128906 -0.078125 -0.15625 -0.046875 -0.15625 C 0.179688 -0.15625 0.375 -0.203125 0.53125 -0.296875 C 0.695312 -0.390625 0.859375 -0.5625 1.015625 -0.8125 C 1.179688 -1.0625 1.375 -1.429688 1.59375 -1.921875 L 4.3125 -7.921875 C 4.332031 -7.941406 4.375 -7.953125 4.4375 -7.953125 C 4.5 -7.953125 4.535156 -7.941406 4.546875 -7.921875 L 7.6875 -1.71875 C 7.988281 -1.125 8.234375 -0.710938 8.421875 -0.484375 C 8.617188 -0.265625 8.820312 -0.15625 9.03125 -0.15625 Z M 2.984375 -4.125 L 4.890625 -4.125 L 3.875 -6.109375 Z M 2.984375 -4.125 "/></g></g></g><g fill="#fcffe7" fill-opacity="1"><g transform="translate(18.544398, 56.76776)"><g><path d="M 6.984375 -5.890625 C 7.003906 -5.890625 7.015625 -5.863281 7.015625 -5.8125 C 7.015625 -5.769531 7.003906 -5.75 6.984375 -5.75 C 6.640625 -5.75 6.390625 -5.628906 6.234375 -5.390625 C 6.078125 -5.148438 6 -4.78125 6 -4.28125 L 6 0.140625 C 6 0.148438 5.976562 0.160156 5.9375 0.171875 C 5.894531 0.179688 5.863281 0.175781 5.84375 0.15625 L 1.421875 -4.828125 L 1.421875 -1.59375 C 1.421875 -1.101562 1.5 -0.738281 1.65625 -0.5 C 1.8125 -0.269531 2.050781 -0.15625 2.375 -0.15625 C 2.40625 -0.15625 2.421875 -0.128906 2.421875 -0.078125 C 2.421875 -0.0234375 2.40625 0 2.375 0 C 2.175781 0 2.023438 -0.00390625 1.921875 -0.015625 L 1.3125 -0.03125 L 0.703125 -0.015625 C 0.585938 -0.00390625 0.421875 0 0.203125 0 C 0.179688 0 0.171875 -0.0234375 0.171875 -0.078125 C 0.171875 -0.128906 0.179688 -0.15625 0.203125 -0.15625 C 0.535156 -0.15625 0.78125 -0.269531 0.9375 -0.5 C 1.101562 -0.738281 1.1875 -1.101562 1.1875 -1.59375 L 1.1875 -5.078125 C 0.957031 -5.304688 0.753906 -5.472656 0.578125 -5.578125 C 0.410156 -5.691406 0.25 -5.75 0.09375 -5.75 C 0.0703125 -5.75 0.0625 -5.769531 0.0625 -5.8125 C 0.0625 -5.863281 0.0703125 -5.890625 0.09375 -5.890625 L 0.796875 -5.875 C 0.859375 -5.875 0.945312 -5.875 1.0625 -5.875 C 1.1875 -5.882812 1.488281 -5.890625 1.96875 -5.890625 C 2.03125 -5.890625 2.082031 -5.867188 2.125 -5.828125 C 2.175781 -5.785156 2.253906 -5.707031 2.359375 -5.59375 C 2.421875 -5.488281 2.507812 -5.367188 2.625 -5.234375 L 5.75 -1.765625 L 5.75 -4.28125 C 5.75 -4.78125 5.671875 -5.148438 5.515625 -5.390625 C 5.367188 -5.628906 5.125 -5.75 4.78125 -5.75 C 4.769531 -5.75 4.765625 -5.769531 4.765625 -5.8125 C 4.765625 -5.863281 4.769531 -5.890625 4.78125 -5.890625 L 5.265625 -5.875 C 5.515625 -5.863281 5.710938 -5.859375 5.859375 -5.859375 C 5.992188 -5.859375 6.195312 -5.863281 6.46875 -5.875 Z M 6.984375 -5.890625 "/></g></g></g><g fill="#fcffe7" fill-opacity="1"><g transform="translate(25.264904, 56.76776)"><g><path d="M 3.5 0.046875 C 3.257812 0.046875 3 0.0351562 2.71875 0.015625 C 2.613281 0.00390625 2.484375 -0.00390625 2.328125 -0.015625 C 2.179688 -0.0234375 2.015625 -0.03125 1.828125 -0.03125 L 1 -0.015625 C 0.851562 -0.00390625 0.644531 0 0.375 0 C 0.363281 0 0.359375 -0.0234375 0.359375 -0.078125 C 0.359375 -0.128906 0.363281 -0.15625 0.375 -0.15625 C 0.625 -0.15625 0.804688 -0.175781 0.921875 -0.21875 C 1.035156 -0.257812 1.109375 -0.335938 1.140625 -0.453125 C 1.179688 -0.578125 1.203125 -0.765625 1.203125 -1.015625 L 1.203125 -4.875 C 1.203125 -5.125 1.179688 -5.304688 1.140625 -5.421875 C 1.109375 -5.546875 1.035156 -5.628906 0.921875 -5.671875 C 0.804688 -5.722656 0.632812 -5.75 0.40625 -5.75 C 0.375 -5.75 0.359375 -5.769531 0.359375 -5.8125 C 0.359375 -5.863281 0.375 -5.890625 0.40625 -5.890625 L 1 -5.875 C 1.34375 -5.863281 1.617188 -5.859375 1.828125 -5.859375 C 2.085938 -5.859375 2.347656 -5.867188 2.609375 -5.890625 C 2.941406 -5.910156 3.191406 -5.921875 3.359375 -5.921875 C 4.066406 -5.921875 4.675781 -5.789062 5.1875 -5.53125 C 5.695312 -5.28125 6.085938 -4.929688 6.359375 -4.484375 C 6.628906 -4.046875 6.765625 -3.546875 6.765625 -2.984375 C 6.765625 -2.398438 6.625 -1.878906 6.34375 -1.421875 C 6.070312 -0.960938 5.6875 -0.601562 5.1875 -0.34375 C 4.695312 -0.0820312 4.132812 0.046875 3.5 0.046875 Z M 3.359375 -0.234375 C 3.972656 -0.234375 4.453125 -0.457031 4.796875 -0.90625 C 5.140625 -1.363281 5.3125 -2.007812 5.3125 -2.84375 C 5.3125 -3.65625 5.140625 -4.328125 4.796875 -4.859375 C 4.453125 -5.398438 3.9375 -5.671875 3.25 -5.671875 C 2.96875 -5.671875 2.765625 -5.609375 2.640625 -5.484375 C 2.515625 -5.367188 2.453125 -5.15625 2.453125 -4.84375 L 2.453125 -1.15625 C 2.453125 -0.8125 2.515625 -0.570312 2.640625 -0.4375 C 2.765625 -0.300781 3.003906 -0.234375 3.359375 -0.234375 Z M 3.359375 -0.234375 "/></g></g></g><g fill="#fcffe7" fill-opacity="1"><g transform="translate(32.023165, 56.76776)"><g><path d="M 7.125 -0.15625 C 7.15625 -0.15625 7.171875 -0.128906 7.171875 -0.078125 C 7.171875 -0.0234375 7.15625 0 7.125 0 L 5.0625 0 C 4.9375 0 4.710938 -0.25 4.390625 -0.75 C 4.066406 -1.257812 3.679688 -1.953125 3.234375 -2.828125 C 3.054688 -2.804688 2.878906 -2.796875 2.703125 -2.796875 L 2.5 -2.796875 L 2.5 -1.015625 C 2.5 -0.753906 2.515625 -0.566406 2.546875 -0.453125 C 2.585938 -0.335938 2.660156 -0.257812 2.765625 -0.21875 C 2.867188 -0.175781 3.039062 -0.15625 3.28125 -0.15625 C 3.289062 -0.15625 3.296875 -0.128906 3.296875 -0.078125 C 3.296875 -0.0234375 3.289062 0 3.28125 0 C 3.019531 0 2.820312 -0.00390625 2.6875 -0.015625 L 1.828125 -0.03125 L 1 -0.015625 C 0.851562 -0.00390625 0.644531 0 0.375 0 C 0.363281 0 0.359375 -0.0234375 0.359375 -0.078125 C 0.359375 -0.128906 0.363281 -0.15625 0.375 -0.15625 C 0.613281 -0.15625 0.785156 -0.175781 0.890625 -0.21875 C 1.003906 -0.257812 1.082031 -0.335938 1.125 -0.453125 C 1.164062 -0.578125 1.1875 -0.765625 1.1875 -1.015625 L 1.1875 -4.875 C 1.1875 -5.125 1.164062 -5.304688 1.125 -5.421875 C 1.09375 -5.546875 1.019531 -5.628906 0.90625 -5.671875 C 0.800781 -5.722656 0.632812 -5.75 0.40625 -5.75 C 0.375 -5.75 0.359375 -5.769531 0.359375 -5.8125 C 0.359375 -5.863281 0.375 -5.890625 0.40625 -5.890625 L 1.015625 -5.875 C 1.359375 -5.863281 1.628906 -5.859375 1.828125 -5.859375 C 1.984375 -5.859375 2.128906 -5.859375 2.265625 -5.859375 C 2.398438 -5.867188 2.519531 -5.878906 2.625 -5.890625 C 2.894531 -5.921875 3.15625 -5.9375 3.40625 -5.9375 C 4.050781 -5.9375 4.546875 -5.828125 4.890625 -5.609375 C 5.242188 -5.398438 5.421875 -5.097656 5.421875 -4.703125 C 5.421875 -4.378906 5.3125 -4.078125 5.09375 -3.796875 C 4.882812 -3.523438 4.597656 -3.300781 4.234375 -3.125 C 4.679688 -2.363281 5.066406 -1.765625 5.390625 -1.328125 C 5.722656 -0.898438 6.023438 -0.597656 6.296875 -0.421875 C 6.566406 -0.242188 6.84375 -0.15625 7.125 -0.15625 Z M 2.5 -3.046875 C 2.550781 -3.035156 2.648438 -3.03125 2.796875 -3.03125 C 3.273438 -3.03125 3.601562 -3.140625 3.78125 -3.359375 C 3.96875 -3.585938 4.0625 -3.925781 4.0625 -4.375 C 4.0625 -5.25 3.742188 -5.6875 3.109375 -5.6875 C 2.929688 -5.6875 2.800781 -5.660156 2.71875 -5.609375 C 2.632812 -5.566406 2.578125 -5.488281 2.546875 -5.375 C 2.515625 -5.269531 2.5 -5.09375 2.5 -4.84375 Z M 2.5 -3.046875 "/></g></g></g><g fill="#fcffe7" fill-opacity="1"><g transform="translate(38.529701, 56.76776)"><g><path d="M 5.234375 -1.671875 C 5.253906 -1.703125 5.285156 -1.71875 5.328125 -1.71875 C 5.367188 -1.71875 5.390625 -1.703125 5.390625 -1.671875 C 5.328125 -1.066406 5.296875 -0.570312 5.296875 -0.1875 C 5.296875 -0.125 5.28125 -0.078125 5.25 -0.046875 C 5.226562 -0.015625 5.179688 0 5.109375 0 L 0.375 0 C 0.363281 0 0.359375 -0.0234375 0.359375 -0.078125 C 0.359375 -0.128906 0.363281 -0.15625 0.375 -0.15625 C 0.625 -0.15625 0.800781 -0.175781 0.90625 -0.21875 C 1.019531 -0.257812 1.097656 -0.335938 1.140625 -0.453125 C 1.179688 -0.578125 1.203125 -0.765625 1.203125 -1.015625 L 1.203125 -4.875 C 1.203125 -5.125 1.179688 -5.304688 1.140625 -5.421875 C 1.097656 -5.546875 1.019531 -5.628906 0.90625 -5.671875 C 0.789062 -5.722656 0.613281 -5.75 0.375 -5.75 C 0.363281 -5.75 0.359375 -5.769531 0.359375 -5.8125 C 0.359375 -5.863281 0.363281 -5.890625 0.375 -5.890625 L 4.890625 -5.890625 C 4.972656 -5.890625 5.015625 -5.859375 5.015625 -5.796875 L 5.03125 -5.015625 C 5.03125 -4.847656 5.03125 -4.644531 5.03125 -4.40625 C 5.03125 -4.382812 5.007812 -4.375 4.96875 -4.375 C 4.925781 -4.375 4.898438 -4.382812 4.890625 -4.40625 C 4.722656 -4.78125 4.476562 -5.09375 4.15625 -5.34375 C 3.832031 -5.601562 3.5 -5.734375 3.15625 -5.734375 L 3.078125 -5.734375 C 2.890625 -5.734375 2.75 -5.707031 2.65625 -5.65625 C 2.570312 -5.613281 2.515625 -5.53125 2.484375 -5.40625 C 2.453125 -5.289062 2.4375 -5.109375 2.4375 -4.859375 L 2.4375 -3.15625 C 3.082031 -3.164062 3.554688 -3.191406 3.859375 -3.234375 C 4.160156 -3.273438 4.332031 -3.296875 4.375 -3.296875 C 4.425781 -3.296875 4.453125 -3.203125 4.453125 -3.015625 C 4.453125 -2.929688 4.441406 -2.851562 4.421875 -2.78125 C 4.410156 -2.71875 4.394531 -2.6875 4.375 -2.6875 C 4.320312 -2.6875 4.144531 -2.707031 3.84375 -2.75 C 3.539062 -2.800781 3.070312 -2.832031 2.4375 -2.84375 L 2.4375 -1.078125 C 2.4375 -0.816406 2.453125 -0.628906 2.484375 -0.515625 C 2.515625 -0.398438 2.570312 -0.316406 2.65625 -0.265625 C 2.75 -0.222656 2.890625 -0.203125 3.078125 -0.203125 L 3.21875 -0.203125 C 3.601562 -0.203125 3.988281 -0.34375 4.375 -0.625 C 4.769531 -0.90625 5.054688 -1.253906 5.234375 -1.671875 Z M 5.234375 -1.671875 "/></g></g></g><g fill="#fcffe7" fill-opacity="1"><g transform="translate(43.991611, 56.76776)"><g><path d="M 7.015625 -0.15625 C 7.054688 -0.15625 7.078125 -0.128906 7.078125 -0.078125 C 7.078125 -0.0234375 7.054688 0 7.015625 0 C 6.835938 0 6.570312 -0.0078125 6.21875 -0.03125 C 5.851562 -0.0390625 5.59375 -0.046875 5.4375 -0.046875 C 5.289062 -0.046875 5.066406 -0.0390625 4.765625 -0.03125 C 4.484375 -0.0078125 4.285156 0 4.171875 0 C 4.140625 0 4.125 -0.0234375 4.125 -0.078125 C 4.125 -0.128906 4.140625 -0.15625 4.171875 -0.15625 C 4.359375 -0.15625 4.492188 -0.175781 4.578125 -0.21875 C 4.660156 -0.269531 4.703125 -0.335938 4.703125 -0.421875 C 4.703125 -0.546875 4.628906 -0.757812 4.484375 -1.0625 L 3.734375 -2.6875 L 2.265625 -2.6875 L 1.78125 -1.546875 C 1.632812 -1.191406 1.5625 -0.914062 1.5625 -0.71875 C 1.5625 -0.519531 1.628906 -0.375 1.765625 -0.28125 C 1.910156 -0.195312 2.132812 -0.15625 2.4375 -0.15625 C 2.476562 -0.15625 2.5 -0.128906 2.5 -0.078125 C 2.5 -0.0234375 2.476562 0 2.4375 0 C 2.320312 0 2.15625 -0.0078125 1.9375 -0.03125 C 1.707031 -0.0390625 1.488281 -0.046875 1.28125 -0.046875 C 1.070312 -0.046875 0.828125 -0.0390625 0.546875 -0.03125 C 0.285156 -0.0078125 0.078125 0 -0.078125 0 C -0.117188 0 -0.140625 -0.0234375 -0.140625 -0.078125 C -0.140625 -0.128906 -0.117188 -0.15625 -0.078125 -0.15625 C 0.179688 -0.15625 0.390625 -0.191406 0.546875 -0.265625 C 0.710938 -0.335938 0.863281 -0.476562 1 -0.6875 C 1.132812 -0.894531 1.296875 -1.21875 1.484375 -1.65625 L 3.375 -6.078125 C 3.394531 -6.117188 3.421875 -6.140625 3.453125 -6.140625 C 3.484375 -6.140625 3.507812 -6.117188 3.53125 -6.078125 L 5.546875 -1.71875 C 5.753906 -1.269531 5.925781 -0.9375 6.0625 -0.71875 C 6.195312 -0.5 6.335938 -0.347656 6.484375 -0.265625 C 6.628906 -0.191406 6.804688 -0.15625 7.015625 -0.15625 Z M 2.40625 -3.015625 L 3.578125 -3.015625 L 2.953125 -4.328125 Z M 2.40625 -3.015625 "/></g></g></g><g fill="#fcffe7" fill-opacity="1"><g transform="translate(50.611422, 56.76776)"><g/></g></g><g fill="#fcffe7" fill-opacity="1"><g transform="translate(53.178546, 56.76776)"><g><path d="M 8.921875 -0.15625 C 8.929688 -0.15625 8.9375 -0.128906 8.9375 -0.078125 C 8.9375 -0.0234375 8.929688 0 8.921875 0 L 6.671875 0 C 6.484375 0 6.140625 -0.34375 5.640625 -1.03125 C 5.140625 -1.726562 4.53125 -2.695312 3.8125 -3.9375 C 3.75 -3.925781 3.65625 -3.921875 3.53125 -3.921875 C 3.195312 -3.921875 2.960938 -3.925781 2.828125 -3.9375 L 2.828125 -1.015625 C 2.828125 -0.753906 2.847656 -0.566406 2.890625 -0.453125 C 2.929688 -0.335938 3.015625 -0.257812 3.140625 -0.21875 C 3.265625 -0.175781 3.460938 -0.15625 3.734375 -0.15625 C 3.742188 -0.15625 3.75 -0.128906 3.75 -0.078125 C 3.75 -0.0234375 3.742188 0 3.734375 0 C 3.453125 0 3.234375 -0.00390625 3.078125 -0.015625 L 2.109375 -0.03125 L 1.203125 -0.015625 C 1.023438 -0.00390625 0.796875 0 0.515625 0 C 0.492188 0 0.484375 -0.0234375 0.484375 -0.078125 C 0.484375 -0.128906 0.492188 -0.15625 0.515625 -0.15625 C 0.785156 -0.15625 0.976562 -0.175781 1.09375 -0.21875 C 1.21875 -0.257812 1.300781 -0.335938 1.34375 -0.453125 C 1.394531 -0.578125 1.421875 -0.765625 1.421875 -1.015625 L 1.421875 -6.84375 C 1.421875 -7.101562 1.398438 -7.289062 1.359375 -7.40625 C 1.316406 -7.519531 1.234375 -7.597656 1.109375 -7.640625 C 0.984375 -7.691406 0.789062 -7.71875 0.53125 -7.71875 C 0.507812 -7.71875 0.5 -7.742188 0.5 -7.796875 C 0.5 -7.847656 0.507812 -7.875 0.53125 -7.875 L 1.203125 -7.859375 C 1.585938 -7.835938 1.890625 -7.828125 2.109375 -7.828125 C 2.359375 -7.828125 2.628906 -7.84375 2.921875 -7.875 C 3.015625 -7.882812 3.132812 -7.890625 3.28125 -7.890625 C 3.425781 -7.898438 3.597656 -7.90625 3.796875 -7.90625 C 4.578125 -7.90625 5.175781 -7.765625 5.59375 -7.484375 C 6.019531 -7.203125 6.234375 -6.8125 6.234375 -6.3125 C 6.234375 -5.925781 6.113281 -5.554688 5.875 -5.203125 C 5.644531 -4.847656 5.34375 -4.5625 4.96875 -4.34375 C 5.632812 -3.289062 6.195312 -2.460938 6.65625 -1.859375 C 7.113281 -1.265625 7.519531 -0.832031 7.875 -0.5625 C 8.226562 -0.289062 8.578125 -0.15625 8.921875 -0.15625 Z M 2.828125 -4.3125 C 3.035156 -4.269531 3.28125 -4.25 3.5625 -4.25 C 3.863281 -4.25 4.101562 -4.296875 4.28125 -4.390625 C 4.457031 -4.484375 4.582031 -4.644531 4.65625 -4.875 C 4.738281 -5.101562 4.78125 -5.421875 4.78125 -5.828125 C 4.78125 -6.515625 4.679688 -6.988281 4.484375 -7.25 C 4.285156 -7.507812 3.992188 -7.640625 3.609375 -7.640625 C 3.328125 -7.640625 3.125 -7.578125 3 -7.453125 C 2.882812 -7.328125 2.828125 -7.117188 2.828125 -6.828125 Z M 2.828125 -4.3125 "/></g></g></g><g fill="#fcffe7" fill-opacity="1"><g transform="translate(61.585567, 56.76776)"><g><path d="M 5.234375 -1.671875 C 5.253906 -1.703125 5.285156 -1.71875 5.328125 -1.71875 C 5.367188 -1.71875 5.390625 -1.703125 5.390625 -1.671875 C 5.328125 -1.066406 5.296875 -0.570312 5.296875 -0.1875 C 5.296875 -0.125 5.28125 -0.078125 5.25 -0.046875 C 5.226562 -0.015625 5.179688 0 5.109375 0 L 0.375 0 C 0.363281 0 0.359375 -0.0234375 0.359375 -0.078125 C 0.359375 -0.128906 0.363281 -0.15625 0.375 -0.15625 C 0.625 -0.15625 0.800781 -0.175781 0.90625 -0.21875 C 1.019531 -0.257812 1.097656 -0.335938 1.140625 -0.453125 C 1.179688 -0.578125 1.203125 -0.765625 1.203125 -1.015625 L 1.203125 -4.875 C 1.203125 -5.125 1.179688 -5.304688 1.140625 -5.421875 C 1.097656 -5.546875 1.019531 -5.628906 0.90625 -5.671875 C 0.789062 -5.722656 0.613281 -5.75 0.375 -5.75 C 0.363281 -5.75 0.359375 -5.769531 0.359375 -5.8125 C 0.359375 -5.863281 0.363281 -5.890625 0.375 -5.890625 L 4.890625 -5.890625 C 4.972656 -5.890625 5.015625 -5.859375 5.015625 -5.796875 L 5.03125 -5.015625 C 5.03125 -4.847656 5.03125 -4.644531 5.03125 -4.40625 C 5.03125 -4.382812 5.007812 -4.375 4.96875 -4.375 C 4.925781 -4.375 4.898438 -4.382812 4.890625 -4.40625 C 4.722656 -4.78125 4.476562 -5.09375 4.15625 -5.34375 C 3.832031 -5.601562 3.5 -5.734375 3.15625 -5.734375 L 3.078125 -5.734375 C 2.890625 -5.734375 2.75 -5.707031 2.65625 -5.65625 C 2.570312 -5.613281 2.515625 -5.53125 2.484375 -5.40625 C 2.453125 -5.289062 2.4375 -5.109375 2.4375 -4.859375 L 2.4375 -3.15625 C 3.082031 -3.164062 3.554688 -3.191406 3.859375 -3.234375 C 4.160156 -3.273438 4.332031 -3.296875 4.375 -3.296875 C 4.425781 -3.296875 4.453125 -3.203125 4.453125 -3.015625 C 4.453125 -2.929688 4.441406 -2.851562 4.421875 -2.78125 C 4.410156 -2.71875 4.394531 -2.6875 4.375 -2.6875 C 4.320312 -2.6875 4.144531 -2.707031 3.84375 -2.75 C 3.539062 -2.800781 3.070312 -2.832031 2.4375 -2.84375 L 2.4375 -1.078125 C 2.4375 -0.816406 2.453125 -0.628906 2.484375 -0.515625 C 2.515625 -0.398438 2.570312 -0.316406 2.65625 -0.265625 C 2.75 -0.222656 2.890625 -0.203125 3.078125 -0.203125 L 3.21875 -0.203125 C 3.601562 -0.203125 3.988281 -0.34375 4.375 -0.625 C 4.769531 -0.90625 5.054688 -1.253906 5.234375 -1.671875 Z M 5.234375 -1.671875 "/></g></g></g><g fill="#fcffe7" fill-opacity="1"><g transform="translate(67.047477, 56.76776)"><g><path d="M 1.796875 -4.96875 C 1.796875 -4.726562 1.859375 -4.519531 1.984375 -4.34375 C 2.117188 -4.175781 2.28125 -4.03125 2.46875 -3.90625 C 2.664062 -3.789062 2.925781 -3.644531 3.25 -3.46875 C 3.625 -3.269531 3.914062 -3.101562 4.125 -2.96875 C 4.34375 -2.832031 4.53125 -2.65625 4.6875 -2.4375 C 4.84375 -2.21875 4.921875 -1.957031 4.921875 -1.65625 C 4.921875 -1.3125 4.820312 -1.003906 4.625 -0.734375 C 4.425781 -0.460938 4.15625 -0.242188 3.8125 -0.078125 C 3.46875 0.078125 3.082031 0.15625 2.65625 0.15625 C 2.269531 0.15625 1.894531 0.101562 1.53125 0 C 1.164062 -0.09375 0.910156 -0.195312 0.765625 -0.3125 C 0.703125 -0.351562 0.671875 -0.441406 0.671875 -0.578125 L 0.609375 -2 C 0.609375 -2.03125 0.628906 -2.050781 0.671875 -2.0625 C 0.710938 -2.070312 0.738281 -2.0625 0.75 -2.03125 C 1.070312 -1.476562 1.394531 -1.023438 1.71875 -0.671875 C 2.050781 -0.316406 2.425781 -0.140625 2.84375 -0.140625 C 3.09375 -0.140625 3.300781 -0.210938 3.46875 -0.359375 C 3.644531 -0.515625 3.734375 -0.742188 3.734375 -1.046875 C 3.734375 -1.316406 3.660156 -1.550781 3.515625 -1.75 C 3.378906 -1.945312 3.207031 -2.113281 3 -2.25 C 2.800781 -2.394531 2.535156 -2.5625 2.203125 -2.75 C 1.703125 -3.007812 1.320312 -3.257812 1.0625 -3.5 C 0.8125 -3.738281 0.6875 -4.054688 0.6875 -4.453125 C 0.6875 -4.929688 0.898438 -5.316406 1.328125 -5.609375 C 1.753906 -5.898438 2.269531 -6.046875 2.875 -6.046875 C 3.144531 -6.046875 3.425781 -6.015625 3.71875 -5.953125 C 4.007812 -5.898438 4.242188 -5.832031 4.421875 -5.75 C 4.492188 -5.726562 4.539062 -5.695312 4.5625 -5.65625 C 4.59375 -5.625 4.609375 -5.570312 4.609375 -5.5 L 4.609375 -4.3125 C 4.609375 -4.28125 4.585938 -4.257812 4.546875 -4.25 C 4.503906 -4.238281 4.472656 -4.242188 4.453125 -4.265625 C 4.296875 -4.597656 4.070312 -4.925781 3.78125 -5.25 C 3.5 -5.582031 3.125 -5.75 2.65625 -5.75 C 2.375 -5.75 2.160156 -5.675781 2.015625 -5.53125 C 1.867188 -5.382812 1.796875 -5.195312 1.796875 -4.96875 Z M 1.796875 -4.96875 "/></g></g></g><g fill="#fcffe7" fill-opacity="1"><g transform="translate(71.980772, 56.76776)"><g><path d="M 2.046875 -5.640625 C 1.734375 -5.640625 1.429688 -5.503906 1.140625 -5.234375 C 0.847656 -4.972656 0.617188 -4.609375 0.453125 -4.140625 C 0.441406 -4.117188 0.414062 -4.109375 0.375 -4.109375 C 0.332031 -4.109375 0.3125 -4.117188 0.3125 -4.140625 C 0.34375 -4.410156 0.378906 -4.757812 0.421875 -5.1875 C 0.460938 -5.625 0.484375 -5.953125 0.484375 -6.171875 C 0.484375 -6.210938 0.503906 -6.234375 0.546875 -6.234375 C 0.597656 -6.234375 0.625 -6.210938 0.625 -6.171875 C 0.625 -6.054688 0.6875 -5.984375 0.8125 -5.953125 C 0.9375 -5.929688 1.097656 -5.921875 1.296875 -5.921875 C 2.015625 -5.898438 2.648438 -5.890625 3.203125 -5.890625 L 4.296875 -5.90625 C 4.441406 -5.914062 4.632812 -5.921875 4.875 -5.921875 C 5.195312 -5.921875 5.441406 -5.9375 5.609375 -5.96875 C 5.773438 -6.007812 5.878906 -6.09375 5.921875 -6.21875 C 5.929688 -6.25 5.957031 -6.265625 6 -6.265625 C 6.039062 -6.265625 6.0625 -6.25 6.0625 -6.21875 L 6.03125 -5.59375 C 5.976562 -4.851562 5.953125 -4.367188 5.953125 -4.140625 C 5.953125 -4.117188 5.925781 -4.109375 5.875 -4.109375 C 5.832031 -4.109375 5.8125 -4.117188 5.8125 -4.140625 C 5.769531 -4.398438 5.671875 -4.644531 5.515625 -4.875 C 5.367188 -5.101562 5.191406 -5.285156 4.984375 -5.421875 C 4.773438 -5.566406 4.566406 -5.640625 4.359375 -5.640625 C 4.160156 -5.640625 4.023438 -5.585938 3.953125 -5.484375 C 3.890625 -5.378906 3.859375 -5.175781 3.859375 -4.875 L 3.859375 -1.015625 C 3.859375 -0.765625 3.878906 -0.578125 3.921875 -0.453125 C 3.972656 -0.335938 4.0625 -0.257812 4.1875 -0.21875 C 4.3125 -0.175781 4.507812 -0.15625 4.78125 -0.15625 C 4.8125 -0.15625 4.828125 -0.128906 4.828125 -0.078125 C 4.828125 -0.0234375 4.8125 0 4.78125 0 C 4.507812 0 4.289062 -0.00390625 4.125 -0.015625 L 3.1875 -0.03125 L 2.265625 -0.015625 C 2.109375 -0.00390625 1.882812 0 1.59375 0 C 1.570312 0 1.5625 -0.0234375 1.5625 -0.078125 C 1.5625 -0.128906 1.570312 -0.15625 1.59375 -0.15625 C 1.875 -0.15625 2.078125 -0.175781 2.203125 -0.21875 C 2.335938 -0.257812 2.425781 -0.335938 2.46875 -0.453125 C 2.519531 -0.578125 2.546875 -0.765625 2.546875 -1.015625 L 2.546875 -4.90625 C 2.546875 -5.207031 2.515625 -5.40625 2.453125 -5.5 C 2.398438 -5.59375 2.265625 -5.640625 2.046875 -5.640625 Z M 2.046875 -5.640625 "/></g></g></g><g fill="#fcffe7" fill-opacity="1"><g transform="translate(77.920942, 56.76776)"><g><path d="M 7.125 -0.15625 C 7.15625 -0.15625 7.171875 -0.128906 7.171875 -0.078125 C 7.171875 -0.0234375 7.15625 0 7.125 0 L 5.0625 0 C 4.9375 0 4.710938 -0.25 4.390625 -0.75 C 4.066406 -1.257812 3.679688 -1.953125 3.234375 -2.828125 C 3.054688 -2.804688 2.878906 -2.796875 2.703125 -2.796875 L 2.5 -2.796875 L 2.5 -1.015625 C 2.5 -0.753906 2.515625 -0.566406 2.546875 -0.453125 C 2.585938 -0.335938 2.660156 -0.257812 2.765625 -0.21875 C 2.867188 -0.175781 3.039062 -0.15625 3.28125 -0.15625 C 3.289062 -0.15625 3.296875 -0.128906 3.296875 -0.078125 C 3.296875 -0.0234375 3.289062 0 3.28125 0 C 3.019531 0 2.820312 -0.00390625 2.6875 -0.015625 L 1.828125 -0.03125 L 1 -0.015625 C 0.851562 -0.00390625 0.644531 0 0.375 0 C 0.363281 0 0.359375 -0.0234375 0.359375 -0.078125 C 0.359375 -0.128906 0.363281 -0.15625 0.375 -0.15625 C 0.613281 -0.15625 0.785156 -0.175781 0.890625 -0.21875 C 1.003906 -0.257812 1.082031 -0.335938 1.125 -0.453125 C 1.164062 -0.578125 1.1875 -0.765625 1.1875 -1.015625 L 1.1875 -4.875 C 1.1875 -5.125 1.164062 -5.304688 1.125 -5.421875 C 1.09375 -5.546875 1.019531 -5.628906 0.90625 -5.671875 C 0.800781 -5.722656 0.632812 -5.75 0.40625 -5.75 C 0.375 -5.75 0.359375 -5.769531 0.359375 -5.8125 C 0.359375 -5.863281 0.375 -5.890625 0.40625 -5.890625 L 1.015625 -5.875 C 1.359375 -5.863281 1.628906 -5.859375 1.828125 -5.859375 C 1.984375 -5.859375 2.128906 -5.859375 2.265625 -5.859375 C 2.398438 -5.867188 2.519531 -5.878906 2.625 -5.890625 C 2.894531 -5.921875 3.15625 -5.9375 3.40625 -5.9375 C 4.050781 -5.9375 4.546875 -5.828125 4.890625 -5.609375 C 5.242188 -5.398438 5.421875 -5.097656 5.421875 -4.703125 C 5.421875 -4.378906 5.3125 -4.078125 5.09375 -3.796875 C 4.882812 -3.523438 4.597656 -3.300781 4.234375 -3.125 C 4.679688 -2.363281 5.066406 -1.765625 5.390625 -1.328125 C 5.722656 -0.898438 6.023438 -0.597656 6.296875 -0.421875 C 6.566406 -0.242188 6.84375 -0.15625 7.125 -0.15625 Z M 2.5 -3.046875 C 2.550781 -3.035156 2.648438 -3.03125 2.796875 -3.03125 C 3.273438 -3.03125 3.601562 -3.140625 3.78125 -3.359375 C 3.96875 -3.585938 4.0625 -3.925781 4.0625 -4.375 C 4.0625 -5.25 3.742188 -5.6875 3.109375 -5.6875 C 2.929688 -5.6875 2.800781 -5.660156 2.71875 -5.609375 C 2.632812 -5.566406 2.578125 -5.488281 2.546875 -5.375 C 2.515625 -5.269531 2.5 -5.09375 2.5 -4.84375 Z M 2.5 -3.046875 "/></g></g></g><g fill="#fcffe7" fill-opacity="1"><g transform="translate(84.42748, 56.76776)"><g><path d="M 5.234375 -1.671875 C 5.253906 -1.703125 5.285156 -1.71875 5.328125 -1.71875 C 5.367188 -1.71875 5.390625 -1.703125 5.390625 -1.671875 C 5.328125 -1.066406 5.296875 -0.570312 5.296875 -0.1875 C 5.296875 -0.125 5.28125 -0.078125 5.25 -0.046875 C 5.226562 -0.015625 5.179688 0 5.109375 0 L 0.375 0 C 0.363281 0 0.359375 -0.0234375 0.359375 -0.078125 C 0.359375 -0.128906 0.363281 -0.15625 0.375 -0.15625 C 0.625 -0.15625 0.800781 -0.175781 0.90625 -0.21875 C 1.019531 -0.257812 1.097656 -0.335938 1.140625 -0.453125 C 1.179688 -0.578125 1.203125 -0.765625 1.203125 -1.015625 L 1.203125 -4.875 C 1.203125 -5.125 1.179688 -5.304688 1.140625 -5.421875 C 1.097656 -5.546875 1.019531 -5.628906 0.90625 -5.671875 C 0.789062 -5.722656 0.613281 -5.75 0.375 -5.75 C 0.363281 -5.75 0.359375 -5.769531 0.359375 -5.8125 C 0.359375 -5.863281 0.363281 -5.890625 0.375 -5.890625 L 4.890625 -5.890625 C 4.972656 -5.890625 5.015625 -5.859375 5.015625 -5.796875 L 5.03125 -5.015625 C 5.03125 -4.847656 5.03125 -4.644531 5.03125 -4.40625 C 5.03125 -4.382812 5.007812 -4.375 4.96875 -4.375 C 4.925781 -4.375 4.898438 -4.382812 4.890625 -4.40625 C 4.722656 -4.78125 4.476562 -5.09375 4.15625 -5.34375 C 3.832031 -5.601562 3.5 -5.734375 3.15625 -5.734375 L 3.078125 -5.734375 C 2.890625 -5.734375 2.75 -5.707031 2.65625 -5.65625 C 2.570312 -5.613281 2.515625 -5.53125 2.484375 -5.40625 C 2.453125 -5.289062 2.4375 -5.109375 2.4375 -4.859375 L 2.4375 -3.15625 C 3.082031 -3.164062 3.554688 -3.191406 3.859375 -3.234375 C 4.160156 -3.273438 4.332031 -3.296875 4.375 -3.296875 C 4.425781 -3.296875 4.453125 -3.203125 4.453125 -3.015625 C 4.453125 -2.929688 4.441406 -2.851562 4.421875 -2.78125 C 4.410156 -2.71875 4.394531 -2.6875 4.375 -2.6875 C 4.320312 -2.6875 4.144531 -2.707031 3.84375 -2.75 C 3.539062 -2.800781 3.070312 -2.832031 2.4375 -2.84375 L 2.4375 -1.078125 C 2.4375 -0.816406 2.453125 -0.628906 2.484375 -0.515625 C 2.515625 -0.398438 2.570312 -0.316406 2.65625 -0.265625 C 2.75 -0.222656 2.890625 -0.203125 3.078125 -0.203125 L 3.21875 -0.203125 C 3.601562 -0.203125 3.988281 -0.34375 4.375 -0.625 C 4.769531 -0.90625 5.054688 -1.253906 5.234375 -1.671875 Z M 5.234375 -1.671875 "/></g></g></g><g fill="#fcffe7" fill-opacity="1"><g transform="translate(89.889389, 56.76776)"><g><path d="M 2.4375 -1.078125 C 2.4375 -0.816406 2.460938 -0.617188 2.515625 -0.484375 C 2.578125 -0.359375 2.6875 -0.269531 2.84375 -0.21875 C 3 -0.175781 3.238281 -0.15625 3.5625 -0.15625 C 3.59375 -0.15625 3.609375 -0.128906 3.609375 -0.078125 C 3.609375 -0.0234375 3.59375 0 3.5625 0 C 3.238281 0 2.992188 -0.00390625 2.828125 -0.015625 L 1.828125 -0.03125 L 1 -0.015625 C 0.851562 -0.00390625 0.644531 0 0.375 0 C 0.363281 0 0.359375 -0.0234375 0.359375 -0.078125 C 0.359375 -0.128906 0.363281 -0.15625 0.375 -0.15625 C 0.613281 -0.15625 0.789062 -0.175781 0.90625 -0.21875 C 1.019531 -0.269531 1.097656 -0.351562 1.140625 -0.46875 C 1.179688 -0.582031 1.203125 -0.765625 1.203125 -1.015625 L 1.203125 -4.875 C 1.203125 -5.113281 1.175781 -5.296875 1.125 -5.421875 C 1.082031 -5.546875 1.003906 -5.628906 0.890625 -5.671875 C 0.773438 -5.722656 0.601562 -5.75 0.375 -5.75 C 0.363281 -5.75 0.359375 -5.769531 0.359375 -5.8125 C 0.359375 -5.863281 0.363281 -5.890625 0.375 -5.890625 L 1 -5.875 C 1.351562 -5.863281 1.625 -5.859375 1.8125 -5.859375 C 2.03125 -5.859375 2.257812 -5.867188 2.5 -5.890625 C 2.582031 -5.898438 2.707031 -5.910156 2.875 -5.921875 C 3.050781 -5.929688 3.207031 -5.9375 3.34375 -5.9375 C 4.0625 -5.9375 4.609375 -5.816406 4.984375 -5.578125 C 5.359375 -5.335938 5.546875 -4.984375 5.546875 -4.515625 C 5.546875 -4.097656 5.441406 -3.742188 5.234375 -3.453125 C 5.035156 -3.160156 4.769531 -2.9375 4.4375 -2.78125 C 4.101562 -2.632812 3.753906 -2.5625 3.390625 -2.5625 C 3.222656 -2.5625 3.125 -2.570312 3.09375 -2.59375 C 3.070312 -2.613281 3.0625 -2.644531 3.0625 -2.6875 C 3.0625 -2.738281 3.085938 -2.765625 3.140625 -2.765625 L 3.328125 -2.75 C 3.578125 -2.75 3.773438 -2.867188 3.921875 -3.109375 C 4.066406 -3.359375 4.140625 -3.734375 4.140625 -4.234375 C 4.140625 -4.753906 4.046875 -5.128906 3.859375 -5.359375 C 3.679688 -5.585938 3.410156 -5.703125 3.046875 -5.703125 C 2.835938 -5.703125 2.679688 -5.644531 2.578125 -5.53125 C 2.484375 -5.414062 2.4375 -5.1875 2.4375 -4.84375 Z M 2.4375 -1.078125 "/></g></g></g><g fill="#fcffe7" fill-opacity="1"><g transform="translate(95.439396, 56.76776)"><g><path d="M 3.46875 0.15625 C 2.863281 0.15625 2.328125 0.015625 1.859375 -0.265625 C 1.390625 -0.546875 1.023438 -0.921875 0.765625 -1.390625 C 0.503906 -1.867188 0.375 -2.390625 0.375 -2.953125 C 0.375 -3.585938 0.539062 -4.140625 0.875 -4.609375 C 1.207031 -5.078125 1.628906 -5.429688 2.140625 -5.671875 C 2.660156 -5.921875 3.191406 -6.046875 3.734375 -6.046875 C 4.335938 -6.046875 4.863281 -5.898438 5.3125 -5.609375 C 5.769531 -5.316406 6.125 -4.9375 6.375 -4.46875 C 6.632812 -4.007812 6.765625 -3.523438 6.765625 -3.015625 C 6.765625 -2.453125 6.613281 -1.925781 6.3125 -1.4375 C 6.019531 -0.957031 5.625 -0.570312 5.125 -0.28125 C 4.625 0.0078125 4.070312 0.15625 3.46875 0.15625 Z M 3.75 -0.140625 C 4.21875 -0.140625 4.597656 -0.367188 4.890625 -0.828125 C 5.179688 -1.296875 5.328125 -1.9375 5.328125 -2.75 C 5.328125 -3.300781 5.242188 -3.800781 5.078125 -4.25 C 4.910156 -4.707031 4.671875 -5.066406 4.359375 -5.328125 C 4.054688 -5.597656 3.703125 -5.734375 3.296875 -5.734375 C 2.804688 -5.734375 2.4375 -5.53125 2.1875 -5.125 C 1.9375 -4.71875 1.8125 -4.125 1.8125 -3.34375 C 1.8125 -2.738281 1.894531 -2.191406 2.0625 -1.703125 C 2.238281 -1.210938 2.472656 -0.828125 2.765625 -0.546875 C 3.066406 -0.273438 3.394531 -0.140625 3.75 -0.140625 Z M 3.75 -0.140625 "/></g></g></g><g clip-path="url(#id2)"><path fill="#ce9461" d="M 17.136719 66.328125 L 95.09375 66.328125 L 95.09375 73.828125 L 17.136719 73.828125 L 17.136719 66.328125 " fill-opacity="1" fill-rule="nonzero"/></g><g fill="#fcffe7" fill-opacity="1"><g transform="translate(21.334545, 70.252645)"><g><path d="M 1.234375 -1.296875 C 1.234375 -1.296875 1.226562 -1.296875 1.21875 -1.296875 C 1.207031 -1.296875 1.203125 -1.296875 1.203125 -1.296875 C 1.179688 -1.390625 1.144531 -1.460938 1.09375 -1.515625 C 1.039062 -1.566406 0.96875 -1.59375 0.875 -1.59375 L 0.734375 -1.59375 C 0.660156 -1.59375 0.609375 -1.582031 0.578125 -1.5625 C 0.554688 -1.539062 0.546875 -1.5 0.546875 -1.4375 L 0.546875 -0.859375 L 0.78125 -0.859375 C 0.875 -0.859375 0.941406 -0.875 0.984375 -0.90625 C 1.035156 -0.9375 1.0625 -0.984375 1.0625 -1.046875 C 1.0625 -1.054688 1.066406 -1.0625 1.078125 -1.0625 C 1.085938 -1.0625 1.09375 -1.054688 1.09375 -1.046875 L 1.09375 -0.828125 C 1.09375 -0.773438 1.09375 -0.738281 1.09375 -0.71875 L 1.09375 -0.578125 C 1.09375 -0.578125 1.085938 -0.578125 1.078125 -0.578125 C 1.066406 -0.578125 1.0625 -0.578125 1.0625 -0.578125 C 1.0625 -0.648438 1.035156 -0.703125 0.984375 -0.734375 C 0.941406 -0.773438 0.875 -0.796875 0.78125 -0.796875 L 0.546875 -0.796875 L 0.546875 -0.21875 C 0.546875 -0.164062 0.550781 -0.125 0.5625 -0.09375 C 0.570312 -0.0703125 0.597656 -0.0546875 0.640625 -0.046875 C 0.691406 -0.0351562 0.757812 -0.03125 0.84375 -0.03125 C 0.851562 -0.03125 0.859375 -0.0234375 0.859375 -0.015625 C 0.859375 -0.00390625 0.851562 0 0.84375 0 C 0.769531 0 0.71875 0 0.6875 0 L 0.25 0 C 0.207031 0 0.160156 0 0.109375 0 C 0.0976562 0 0.09375 -0.00390625 0.09375 -0.015625 C 0.09375 -0.0234375 0.0976562 -0.03125 0.109375 -0.03125 C 0.171875 -0.03125 0.21875 -0.0351562 0.25 -0.046875 C 0.28125 -0.0546875 0.300781 -0.0703125 0.3125 -0.09375 C 0.320312 -0.125 0.328125 -0.164062 0.328125 -0.21875 L 0.328125 -1.4375 C 0.328125 -1.5 0.320312 -1.539062 0.3125 -1.5625 C 0.300781 -1.582031 0.28125 -1.597656 0.25 -1.609375 C 0.21875 -1.617188 0.171875 -1.625 0.109375 -1.625 C 0.109375 -1.625 0.109375 -1.628906 0.109375 -1.640625 C 0.109375 -1.648438 0.109375 -1.65625 0.109375 -1.65625 L 1.203125 -1.65625 C 1.210938 -1.65625 1.21875 -1.648438 1.21875 -1.640625 Z M 1.234375 -1.296875 "/></g></g></g><g fill="#fcffe7" fill-opacity="1"><g transform="translate(24.150839, 70.252645)"><g><path d="M 1.515625 -1.359375 C 1.515625 -1.441406 1.492188 -1.503906 1.453125 -1.546875 C 1.421875 -1.597656 1.363281 -1.625 1.28125 -1.625 C 1.28125 -1.625 1.28125 -1.628906 1.28125 -1.640625 C 1.28125 -1.648438 1.28125 -1.65625 1.28125 -1.65625 L 1.40625 -1.65625 C 1.46875 -1.65625 1.515625 -1.65625 1.546875 -1.65625 C 1.585938 -1.65625 1.632812 -1.65625 1.6875 -1.65625 L 1.8125 -1.65625 C 1.8125 -1.65625 1.8125 -1.648438 1.8125 -1.640625 C 1.8125 -1.628906 1.8125 -1.625 1.8125 -1.625 C 1.664062 -1.625 1.59375 -1.535156 1.59375 -1.359375 L 1.59375 -0.609375 C 1.59375 -0.410156 1.535156 -0.253906 1.421875 -0.140625 C 1.304688 -0.0234375 1.148438 0.03125 0.953125 0.03125 C 0.816406 0.03125 0.695312 0.0078125 0.59375 -0.03125 C 0.5 -0.0820312 0.425781 -0.15625 0.375 -0.25 C 0.320312 -0.351562 0.296875 -0.46875 0.296875 -0.59375 L 0.296875 -1.4375 C 0.296875 -1.5 0.289062 -1.539062 0.28125 -1.5625 C 0.269531 -1.582031 0.25 -1.597656 0.21875 -1.609375 C 0.1875 -1.617188 0.140625 -1.625 0.078125 -1.625 C 0.078125 -1.625 0.078125 -1.628906 0.078125 -1.640625 C 0.078125 -1.648438 0.078125 -1.65625 0.078125 -1.65625 L 0.21875 -1.65625 C 0.289062 -1.65625 0.347656 -1.65625 0.390625 -1.65625 C 0.441406 -1.65625 0.507812 -1.65625 0.59375 -1.65625 L 0.71875 -1.65625 C 0.71875 -1.65625 0.71875 -1.648438 0.71875 -1.640625 C 0.71875 -1.628906 0.71875 -1.625 0.71875 -1.625 C 0.65625 -1.625 0.609375 -1.617188 0.578125 -1.609375 C 0.546875 -1.597656 0.523438 -1.578125 0.515625 -1.546875 C 0.503906 -1.523438 0.5 -1.488281 0.5 -1.4375 L 0.5 -0.6875 C 0.5 -0.476562 0.546875 -0.316406 0.640625 -0.203125 C 0.734375 -0.0976562 0.863281 -0.046875 1.03125 -0.046875 C 1.175781 -0.046875 1.289062 -0.09375 1.375 -0.1875 C 1.46875 -0.289062 1.515625 -0.425781 1.515625 -0.59375 Z M 1.515625 -1.359375 "/></g></g></g><g fill="#fcffe7" fill-opacity="1"><g transform="translate(27.462569, 70.252645)"><g><path d="M 0.515625 -0.21875 C 0.515625 -0.175781 0.519531 -0.140625 0.53125 -0.109375 C 0.539062 -0.0859375 0.554688 -0.0703125 0.578125 -0.0625 C 0.609375 -0.0625 0.648438 -0.0625 0.703125 -0.0625 L 0.9375 -0.0625 C 1.050781 -0.0625 1.144531 -0.09375 1.21875 -0.15625 C 1.289062 -0.226562 1.335938 -0.320312 1.359375 -0.4375 C 1.359375 -0.4375 1.363281 -0.4375 1.375 -0.4375 C 1.382812 -0.4375 1.390625 -0.429688 1.390625 -0.421875 C 1.367188 -0.265625 1.359375 -0.140625 1.359375 -0.046875 C 1.359375 -0.0234375 1.351562 -0.0078125 1.34375 0 C 1.34375 0 1.335938 0 1.328125 0 L 0.09375 0 C 0.0820312 0 0.078125 -0.00390625 0.078125 -0.015625 C 0.078125 -0.0234375 0.0820312 -0.03125 0.09375 -0.03125 C 0.15625 -0.03125 0.195312 -0.0351562 0.21875 -0.046875 C 0.25 -0.0546875 0.269531 -0.0703125 0.28125 -0.09375 C 0.289062 -0.125 0.296875 -0.164062 0.296875 -0.21875 L 0.296875 -1.4375 C 0.296875 -1.5 0.289062 -1.539062 0.28125 -1.5625 C 0.269531 -1.582031 0.25 -1.597656 0.21875 -1.609375 C 0.195312 -1.617188 0.15625 -1.625 0.09375 -1.625 C 0.0820312 -1.625 0.078125 -1.628906 0.078125 -1.640625 C 0.078125 -1.648438 0.0820312 -1.65625 0.09375 -1.65625 L 0.21875 -1.65625 C 0.300781 -1.65625 0.363281 -1.65625 0.40625 -1.65625 C 0.457031 -1.65625 0.519531 -1.65625 0.59375 -1.65625 L 0.734375 -1.65625 C 0.734375 -1.65625 0.734375 -1.648438 0.734375 -1.640625 C 0.734375 -1.628906 0.734375 -1.625 0.734375 -1.625 C 0.671875 -1.625 0.625 -1.617188 0.59375 -1.609375 C 0.5625 -1.597656 0.539062 -1.578125 0.53125 -1.546875 C 0.519531 -1.523438 0.515625 -1.488281 0.515625 -1.4375 Z M 0.515625 -0.21875 "/></g></g></g><g fill="#fcffe7" fill-opacity="1"><g transform="translate(30.34245, 70.252645)"><g><path d="M 0.515625 -0.21875 C 0.515625 -0.175781 0.519531 -0.140625 0.53125 -0.109375 C 0.539062 -0.0859375 0.554688 -0.0703125 0.578125 -0.0625 C 0.609375 -0.0625 0.648438 -0.0625 0.703125 -0.0625 L 0.9375 -0.0625 C 1.050781 -0.0625 1.144531 -0.09375 1.21875 -0.15625 C 1.289062 -0.226562 1.335938 -0.320312 1.359375 -0.4375 C 1.359375 -0.4375 1.363281 -0.4375 1.375 -0.4375 C 1.382812 -0.4375 1.390625 -0.429688 1.390625 -0.421875 C 1.367188 -0.265625 1.359375 -0.140625 1.359375 -0.046875 C 1.359375 -0.0234375 1.351562 -0.0078125 1.34375 0 C 1.34375 0 1.335938 0 1.328125 0 L 0.09375 0 C 0.0820312 0 0.078125 -0.00390625 0.078125 -0.015625 C 0.078125 -0.0234375 0.0820312 -0.03125 0.09375 -0.03125 C 0.15625 -0.03125 0.195312 -0.0351562 0.21875 -0.046875 C 0.25 -0.0546875 0.269531 -0.0703125 0.28125 -0.09375 C 0.289062 -0.125 0.296875 -0.164062 0.296875 -0.21875 L 0.296875 -1.4375 C 0.296875 -1.5 0.289062 -1.539062 0.28125 -1.5625 C 0.269531 -1.582031 0.25 -1.597656 0.21875 -1.609375 C 0.195312 -1.617188 0.15625 -1.625 0.09375 -1.625 C 0.0820312 -1.625 0.078125 -1.628906 0.078125 -1.640625 C 0.078125 -1.648438 0.0820312 -1.65625 0.09375 -1.65625 L 0.21875 -1.65625 C 0.300781 -1.65625 0.363281 -1.65625 0.40625 -1.65625 C 0.457031 -1.65625 0.519531 -1.65625 0.59375 -1.65625 L 0.734375 -1.65625 C 0.734375 -1.65625 0.734375 -1.648438 0.734375 -1.640625 C 0.734375 -1.628906 0.734375 -1.625 0.734375 -1.625 C 0.671875 -1.625 0.625 -1.617188 0.59375 -1.609375 C 0.5625 -1.597656 0.539062 -1.578125 0.53125 -1.546875 C 0.519531 -1.523438 0.515625 -1.488281 0.515625 -1.4375 Z M 0.515625 -0.21875 "/></g></g></g><g fill="#fcffe7" fill-opacity="1"><g transform="translate(33.222331, 70.252645)"><g/></g></g><g fill="#fcffe7" fill-opacity="1"><g transform="translate(35.299443, 70.252645)"><g><path d="M 0.40625 -1.359375 C 0.40625 -1.296875 0.421875 -1.238281 0.453125 -1.1875 C 0.492188 -1.132812 0.535156 -1.085938 0.578125 -1.046875 C 0.628906 -1.015625 0.695312 -0.972656 0.78125 -0.921875 C 0.863281 -0.867188 0.929688 -0.820312 0.984375 -0.78125 C 1.046875 -0.738281 1.09375 -0.6875 1.125 -0.625 C 1.164062 -0.570312 1.1875 -0.503906 1.1875 -0.421875 C 1.1875 -0.335938 1.160156 -0.257812 1.109375 -0.1875 C 1.066406 -0.125 1.003906 -0.0703125 0.921875 -0.03125 C 0.835938 0.0078125 0.738281 0.03125 0.625 0.03125 C 0.550781 0.03125 0.476562 0.0195312 0.40625 0 C 0.34375 -0.0078125 0.285156 -0.03125 0.234375 -0.0625 C 0.222656 -0.0703125 0.21875 -0.078125 0.21875 -0.078125 C 0.21875 -0.0859375 0.21875 -0.0976562 0.21875 -0.109375 L 0.1875 -0.5 C 0.1875 -0.5 0.191406 -0.5 0.203125 -0.5 C 0.210938 -0.507812 0.21875 -0.507812 0.21875 -0.5 C 0.257812 -0.363281 0.316406 -0.25 0.390625 -0.15625 C 0.460938 -0.0625 0.5625 -0.015625 0.6875 -0.015625 C 0.769531 -0.015625 0.835938 -0.0351562 0.890625 -0.078125 C 0.953125 -0.128906 0.984375 -0.207031 0.984375 -0.3125 C 0.984375 -0.382812 0.960938 -0.445312 0.921875 -0.5 C 0.890625 -0.5625 0.847656 -0.613281 0.796875 -0.65625 C 0.742188 -0.695312 0.675781 -0.742188 0.59375 -0.796875 C 0.507812 -0.847656 0.441406 -0.890625 0.390625 -0.921875 C 0.347656 -0.960938 0.304688 -1.007812 0.265625 -1.0625 C 0.234375 -1.125 0.21875 -1.191406 0.21875 -1.265625 C 0.21875 -1.359375 0.242188 -1.4375 0.296875 -1.5 C 0.347656 -1.5625 0.410156 -1.609375 0.484375 -1.640625 C 0.566406 -1.671875 0.648438 -1.6875 0.734375 -1.6875 C 0.859375 -1.6875 0.96875 -1.664062 1.0625 -1.625 C 1.082031 -1.613281 1.09375 -1.597656 1.09375 -1.578125 L 1.109375 -1.25 C 1.109375 -1.238281 1.101562 -1.234375 1.09375 -1.234375 C 1.09375 -1.234375 1.085938 -1.238281 1.078125 -1.25 C 1.054688 -1.34375 1.015625 -1.429688 0.953125 -1.515625 C 0.890625 -1.597656 0.800781 -1.640625 0.6875 -1.640625 C 0.601562 -1.640625 0.535156 -1.613281 0.484375 -1.5625 C 0.429688 -1.507812 0.40625 -1.441406 0.40625 -1.359375 Z M 0.40625 -1.359375 "/></g></g></g><g fill="#fcffe7" fill-opacity="1"><g transform="translate(38.078645, 70.252645)"><g><path d="M 0.53125 -1.609375 C 0.414062 -1.609375 0.328125 -1.578125 0.265625 -1.515625 C 0.203125 -1.453125 0.15625 -1.351562 0.125 -1.21875 C 0.125 -1.21875 0.117188 -1.21875 0.109375 -1.21875 C 0.0976562 -1.21875 0.09375 -1.21875 0.09375 -1.21875 C 0.101562 -1.269531 0.113281 -1.351562 0.125 -1.46875 C 0.132812 -1.582031 0.140625 -1.664062 0.140625 -1.71875 C 0.140625 -1.726562 0.144531 -1.734375 0.15625 -1.734375 C 0.164062 -1.734375 0.171875 -1.726562 0.171875 -1.71875 C 0.171875 -1.675781 0.21875 -1.65625 0.3125 -1.65625 C 0.46875 -1.65625 0.644531 -1.65625 0.84375 -1.65625 C 0.945312 -1.65625 1.0625 -1.65625 1.1875 -1.65625 L 1.359375 -1.65625 C 1.421875 -1.65625 1.46875 -1.660156 1.5 -1.671875 C 1.53125 -1.679688 1.550781 -1.695312 1.5625 -1.71875 C 1.5625 -1.726562 1.566406 -1.734375 1.578125 -1.734375 C 1.585938 -1.734375 1.59375 -1.726562 1.59375 -1.71875 C 1.59375 -1.675781 1.585938 -1.597656 1.578125 -1.484375 C 1.566406 -1.378906 1.5625 -1.289062 1.5625 -1.21875 C 1.5625 -1.21875 1.554688 -1.21875 1.546875 -1.21875 C 1.523438 -1.351562 1.484375 -1.453125 1.421875 -1.515625 C 1.367188 -1.578125 1.285156 -1.609375 1.171875 -1.609375 C 1.109375 -1.609375 1.0625 -1.601562 1.03125 -1.59375 C 1 -1.582031 0.976562 -1.566406 0.96875 -1.546875 C 0.957031 -1.523438 0.953125 -1.488281 0.953125 -1.4375 L 0.953125 -0.21875 C 0.953125 -0.15625 0.957031 -0.113281 0.96875 -0.09375 C 0.988281 -0.0703125 1.015625 -0.0546875 1.046875 -0.046875 C 1.078125 -0.0351562 1.128906 -0.03125 1.203125 -0.03125 C 1.210938 -0.03125 1.21875 -0.0234375 1.21875 -0.015625 C 1.21875 -0.00390625 1.210938 0 1.203125 0 C 1.140625 0 1.09375 0 1.0625 0 L 0.640625 0 C 0.609375 0 0.5625 0 0.5 0 C 0.488281 0 0.484375 -0.00390625 0.484375 -0.015625 C 0.484375 -0.0234375 0.488281 -0.03125 0.5 -0.03125 C 0.570312 -0.03125 0.625 -0.0351562 0.65625 -0.046875 C 0.6875 -0.0546875 0.707031 -0.0703125 0.71875 -0.09375 C 0.738281 -0.125 0.75 -0.164062 0.75 -0.21875 L 0.75 -1.4375 C 0.75 -1.488281 0.742188 -1.523438 0.734375 -1.546875 C 0.722656 -1.566406 0.703125 -1.582031 0.671875 -1.59375 C 0.640625 -1.601562 0.59375 -1.609375 0.53125 -1.609375 Z M 0.53125 -1.609375 "/></g></g></g><g fill="#fcffe7" fill-opacity="1"><g transform="translate(41.223466, 70.252645)"><g><path d="M 1.875 -0.03125 C 1.882812 -0.03125 1.890625 -0.0234375 1.890625 -0.015625 C 1.890625 -0.00390625 1.882812 0 1.875 0 C 1.84375 0 1.785156 0 1.703125 0 C 1.640625 -0.0078125 1.585938 -0.015625 1.546875 -0.015625 C 1.515625 -0.015625 1.46875 -0.0078125 1.40625 0 C 1.34375 0 1.296875 0 1.265625 0 C 1.253906 0 1.25 -0.00390625 1.25 -0.015625 C 1.25 -0.0234375 1.253906 -0.03125 1.265625 -0.03125 C 1.328125 -0.03125 1.367188 -0.0351562 1.390625 -0.046875 C 1.421875 -0.0546875 1.4375 -0.078125 1.4375 -0.109375 C 1.4375 -0.140625 1.421875 -0.179688 1.390625 -0.234375 L 1.09375 -0.859375 L 0.609375 -0.859375 L 0.390625 -0.34375 C 0.367188 -0.289062 0.359375 -0.242188 0.359375 -0.203125 C 0.359375 -0.0859375 0.441406 -0.03125 0.609375 -0.03125 C 0.617188 -0.03125 0.625 -0.0234375 0.625 -0.015625 C 0.625 -0.00390625 0.617188 0 0.609375 0 C 0.578125 0 0.53125 0 0.46875 0 C 0.40625 -0.0078125 0.347656 -0.015625 0.296875 -0.015625 C 0.253906 -0.015625 0.203125 -0.0078125 0.140625 0 C 0.078125 0 0.03125 0 0 0 C -0.0078125 0 -0.015625 -0.00390625 -0.015625 -0.015625 C -0.015625 -0.0234375 -0.0078125 -0.03125 0 -0.03125 C 0.0507812 -0.03125 0.09375 -0.0390625 0.125 -0.0625 C 0.15625 -0.0820312 0.1875 -0.113281 0.21875 -0.15625 C 0.25 -0.207031 0.285156 -0.28125 0.328125 -0.375 L 0.890625 -1.671875 C 0.898438 -1.679688 0.910156 -1.6875 0.921875 -1.6875 C 0.929688 -1.6875 0.9375 -1.679688 0.9375 -1.671875 L 1.578125 -0.359375 C 1.640625 -0.234375 1.691406 -0.144531 1.734375 -0.09375 C 1.773438 -0.0507812 1.820312 -0.03125 1.875 -0.03125 Z M 0.640625 -0.90625 L 1.078125 -0.90625 L 0.84375 -1.390625 Z M 0.640625 -0.90625 "/></g></g></g><g fill="#fcffe7" fill-opacity="1"><g transform="translate(44.551093, 70.252645)"><g><path d="M 1.109375 -1.6875 C 1.191406 -1.6875 1.273438 -1.675781 1.359375 -1.65625 C 1.441406 -1.644531 1.507812 -1.628906 1.5625 -1.609375 C 1.582031 -1.597656 1.59375 -1.585938 1.59375 -1.578125 C 1.601562 -1.566406 1.609375 -1.554688 1.609375 -1.546875 L 1.640625 -1.21875 C 1.640625 -1.21875 1.632812 -1.210938 1.625 -1.203125 C 1.613281 -1.203125 1.609375 -1.207031 1.609375 -1.21875 C 1.554688 -1.351562 1.476562 -1.453125 1.375 -1.515625 C 1.269531 -1.585938 1.144531 -1.625 1 -1.625 C 0.875 -1.625 0.757812 -1.59375 0.65625 -1.53125 C 0.5625 -1.476562 0.488281 -1.394531 0.4375 -1.28125 C 0.394531 -1.175781 0.375 -1.050781 0.375 -0.90625 C 0.375 -0.75 0.40625 -0.597656 0.46875 -0.453125 C 0.53125 -0.316406 0.613281 -0.207031 0.71875 -0.125 C 0.832031 -0.0507812 0.953125 -0.015625 1.078125 -0.015625 C 1.335938 -0.015625 1.519531 -0.160156 1.625 -0.453125 C 1.625 -0.453125 1.628906 -0.453125 1.640625 -0.453125 C 1.648438 -0.453125 1.65625 -0.453125 1.65625 -0.453125 L 1.625 -0.125 C 1.625 -0.101562 1.617188 -0.0859375 1.609375 -0.078125 C 1.609375 -0.078125 1.597656 -0.0703125 1.578125 -0.0625 C 1.421875 0 1.253906 0.03125 1.078125 0.03125 C 0.867188 0.03125 0.691406 -0.0078125 0.546875 -0.09375 C 0.398438 -0.175781 0.289062 -0.285156 0.21875 -0.421875 C 0.15625 -0.554688 0.125 -0.695312 0.125 -0.84375 C 0.125 -1.007812 0.171875 -1.15625 0.265625 -1.28125 C 0.359375 -1.40625 0.476562 -1.503906 0.625 -1.578125 C 0.78125 -1.648438 0.941406 -1.6875 1.109375 -1.6875 Z M 1.109375 -1.6875 "/></g></g></g><g fill="#fcffe7" fill-opacity="1"><g transform="translate(47.780694, 70.252645)"><g><path d="M 1.71875 -0.03125 C 1.726562 -0.03125 1.734375 -0.0234375 1.734375 -0.015625 C 1.734375 -0.00390625 1.726562 0 1.71875 0 L 1.34375 0 C 1.3125 0 1.289062 0 1.28125 0 C 1.269531 -0.0078125 1.253906 -0.0234375 1.234375 -0.046875 C 1.222656 -0.0664062 1.195312 -0.101562 1.15625 -0.15625 C 1.132812 -0.175781 1.109375 -0.203125 1.078125 -0.234375 C 1.054688 -0.273438 1.023438 -0.328125 0.984375 -0.390625 L 0.59375 -0.890625 L 0.515625 -0.8125 L 0.515625 -0.21875 C 0.515625 -0.164062 0.519531 -0.125 0.53125 -0.09375 C 0.539062 -0.0703125 0.5625 -0.0546875 0.59375 -0.046875 C 0.625 -0.0351562 0.671875 -0.03125 0.734375 -0.03125 C 0.734375 -0.03125 0.734375 -0.0234375 0.734375 -0.015625 C 0.734375 -0.00390625 0.734375 0 0.734375 0 C 0.671875 0 0.625 0 0.59375 0 L 0.21875 0 C 0.1875 0 0.144531 0 0.09375 0 C 0.0820312 0 0.078125 -0.00390625 0.078125 -0.015625 C 0.078125 -0.0234375 0.0820312 -0.03125 0.09375 -0.03125 C 0.15625 -0.03125 0.203125 -0.0351562 0.234375 -0.046875 C 0.265625 -0.0546875 0.285156 -0.0703125 0.296875 -0.09375 C 0.304688 -0.125 0.3125 -0.164062 0.3125 -0.21875 L 0.3125 -1.4375 C 0.3125 -1.5 0.304688 -1.539062 0.296875 -1.5625 C 0.285156 -1.582031 0.265625 -1.597656 0.234375 -1.609375 C 0.203125 -1.617188 0.15625 -1.625 0.09375 -1.625 C 0.0820312 -1.625 0.078125 -1.628906 0.078125 -1.640625 C 0.078125 -1.648438 0.0820312 -1.65625 0.09375 -1.65625 L 0.21875 -1.65625 C 0.300781 -1.65625 0.363281 -1.65625 0.40625 -1.65625 C 0.457031 -1.65625 0.523438 -1.65625 0.609375 -1.65625 L 0.734375 -1.65625 C 0.734375 -1.65625 0.734375 -1.648438 0.734375 -1.640625 C 0.734375 -1.628906 0.734375 -1.625 0.734375 -1.625 C 0.671875 -1.625 0.625 -1.617188 0.59375 -1.609375 C 0.5625 -1.597656 0.539062 -1.578125 0.53125 -1.546875 C 0.519531 -1.523438 0.515625 -1.488281 0.515625 -1.4375 L 0.515625 -0.875 L 1.0625 -1.421875 C 1.113281 -1.484375 1.140625 -1.53125 1.140625 -1.5625 C 1.140625 -1.601562 1.085938 -1.625 0.984375 -1.625 C 0.984375 -1.625 0.984375 -1.628906 0.984375 -1.640625 C 0.984375 -1.648438 0.984375 -1.65625 0.984375 -1.65625 L 1.109375 -1.65625 C 1.179688 -1.65625 1.25 -1.65625 1.3125 -1.65625 C 1.375 -1.65625 1.4375 -1.65625 1.5 -1.65625 L 1.609375 -1.65625 C 1.617188 -1.65625 1.625 -1.648438 1.625 -1.640625 C 1.625 -1.628906 1.617188 -1.625 1.609375 -1.625 C 1.535156 -1.625 1.453125 -1.601562 1.359375 -1.5625 C 1.273438 -1.53125 1.195312 -1.476562 1.125 -1.40625 L 0.75 -1.03125 L 1.125 -0.53125 C 1.25 -0.363281 1.34375 -0.242188 1.40625 -0.171875 C 1.476562 -0.109375 1.53125 -0.0664062 1.5625 -0.046875 C 1.601562 -0.0351562 1.65625 -0.03125 1.71875 -0.03125 Z M 1.71875 -0.03125 "/></g></g></g><g fill="#fcffe7" fill-opacity="1"><g transform="translate(50.965255, 70.252645)"><g/></g></g><g fill="#fcffe7" fill-opacity="1"><g transform="translate(53.04237, 70.252645)"><g><path d="M 2.46875 -1.65625 C 2.46875 -1.65625 2.46875 -1.648438 2.46875 -1.640625 C 2.46875 -1.628906 2.46875 -1.625 2.46875 -1.625 C 2.34375 -1.625 2.25 -1.546875 2.1875 -1.390625 L 1.640625 0 C 1.640625 0.0078125 1.628906 0.015625 1.609375 0.015625 C 1.585938 0.015625 1.578125 0.0078125 1.578125 0 L 1.234375 -0.75 L 0.953125 0 C 0.941406 0.0078125 0.929688 0.015625 0.921875 0.015625 C 0.898438 0.015625 0.890625 0.0078125 0.890625 0 L 0.21875 -1.4375 C 0.1875 -1.507812 0.15625 -1.554688 0.125 -1.578125 C 0.09375 -1.609375 0.0507812 -1.625 0 -1.625 C 0 -1.625 0 -1.628906 0 -1.640625 C 0 -1.648438 0 -1.65625 0 -1.65625 L 0.078125 -1.65625 C 0.128906 -1.65625 0.175781 -1.65625 0.21875 -1.65625 C 0.289062 -1.65625 0.367188 -1.65625 0.453125 -1.65625 C 0.472656 -1.65625 0.503906 -1.65625 0.546875 -1.65625 C 0.554688 -1.65625 0.5625 -1.648438 0.5625 -1.640625 C 0.5625 -1.628906 0.554688 -1.625 0.546875 -1.625 C 0.492188 -1.625 0.457031 -1.617188 0.4375 -1.609375 C 0.414062 -1.597656 0.40625 -1.578125 0.40625 -1.546875 C 0.40625 -1.523438 0.414062 -1.488281 0.4375 -1.4375 L 0.984375 -0.28125 L 1.203125 -0.828125 L 0.90625 -1.4375 C 0.882812 -1.5 0.859375 -1.546875 0.828125 -1.578125 C 0.796875 -1.609375 0.753906 -1.625 0.703125 -1.625 C 0.703125 -1.625 0.703125 -1.628906 0.703125 -1.640625 C 0.703125 -1.648438 0.703125 -1.65625 0.703125 -1.65625 L 0.796875 -1.65625 C 0.835938 -1.65625 0.875 -1.65625 0.90625 -1.65625 C 0.976562 -1.65625 1.039062 -1.65625 1.09375 -1.65625 C 1.113281 -1.65625 1.140625 -1.65625 1.171875 -1.65625 C 1.171875 -1.65625 1.171875 -1.648438 1.171875 -1.640625 C 1.171875 -1.628906 1.171875 -1.625 1.171875 -1.625 C 1.140625 -1.625 1.113281 -1.617188 1.09375 -1.609375 C 1.082031 -1.609375 1.078125 -1.597656 1.078125 -1.578125 C 1.078125 -1.566406 1.082031 -1.546875 1.09375 -1.515625 C 1.101562 -1.492188 1.117188 -1.46875 1.140625 -1.4375 L 1.3125 -1.0625 L 1.4375 -1.390625 C 1.457031 -1.460938 1.46875 -1.515625 1.46875 -1.546875 C 1.46875 -1.597656 1.4375 -1.625 1.375 -1.625 C 1.375 -1.625 1.375 -1.628906 1.375 -1.640625 C 1.375 -1.648438 1.375 -1.65625 1.375 -1.65625 L 1.421875 -1.65625 C 1.460938 -1.65625 1.503906 -1.65625 1.546875 -1.65625 C 1.585938 -1.65625 1.628906 -1.65625 1.671875 -1.65625 L 1.78125 -1.65625 C 1.78125 -1.65625 1.78125 -1.648438 1.78125 -1.640625 C 1.78125 -1.628906 1.78125 -1.625 1.78125 -1.625 C 1.71875 -1.625 1.660156 -1.601562 1.609375 -1.5625 C 1.566406 -1.53125 1.53125 -1.472656 1.5 -1.390625 L 1.34375 -0.984375 L 1.671875 -0.28125 L 2.109375 -1.390625 C 2.128906 -1.429688 2.140625 -1.46875 2.140625 -1.5 C 2.140625 -1.582031 2.078125 -1.625 1.953125 -1.625 C 1.941406 -1.625 1.9375 -1.628906 1.9375 -1.640625 C 1.9375 -1.648438 1.941406 -1.65625 1.953125 -1.65625 L 2.0625 -1.65625 C 2.125 -1.65625 2.179688 -1.65625 2.234375 -1.65625 C 2.265625 -1.65625 2.304688 -1.65625 2.359375 -1.65625 Z M 2.46875 -1.65625 "/></g></g></g><g fill="#fcffe7" fill-opacity="1"><g transform="translate(56.950217, 70.252645)"><g><path d="M 1.28125 -0.40625 C 1.28125 -0.40625 1.285156 -0.40625 1.296875 -0.40625 C 1.304688 -0.40625 1.3125 -0.398438 1.3125 -0.390625 C 1.289062 -0.265625 1.28125 -0.148438 1.28125 -0.046875 C 1.28125 -0.0234375 1.273438 -0.0078125 1.265625 0 C 1.265625 0 1.257812 0 1.25 0 L 0.109375 0 C 0.109375 0 0.109375 -0.00390625 0.109375 -0.015625 C 0.109375 -0.0234375 0.109375 -0.03125 0.109375 -0.03125 C 0.171875 -0.03125 0.21875 -0.0351562 0.25 -0.046875 C 0.28125 -0.0546875 0.300781 -0.0703125 0.3125 -0.09375 C 0.320312 -0.125 0.328125 -0.164062 0.328125 -0.21875 L 0.328125 -1.4375 C 0.328125 -1.5 0.320312 -1.539062 0.3125 -1.5625 C 0.300781 -1.582031 0.28125 -1.597656 0.25 -1.609375 C 0.21875 -1.617188 0.171875 -1.625 0.109375 -1.625 C 0.109375 -1.625 0.109375 -1.628906 0.109375 -1.640625 C 0.109375 -1.648438 0.109375 -1.65625 0.109375 -1.65625 L 1.203125 -1.65625 C 1.210938 -1.65625 1.21875 -1.648438 1.21875 -1.640625 L 1.234375 -1.296875 C 1.234375 -1.296875 1.226562 -1.296875 1.21875 -1.296875 C 1.207031 -1.296875 1.203125 -1.296875 1.203125 -1.296875 C 1.179688 -1.390625 1.144531 -1.460938 1.09375 -1.515625 C 1.039062 -1.566406 0.96875 -1.59375 0.875 -1.59375 L 0.734375 -1.59375 C 0.660156 -1.59375 0.609375 -1.582031 0.578125 -1.5625 C 0.554688 -1.539062 0.546875 -1.5 0.546875 -1.4375 L 0.546875 -0.890625 L 0.828125 -0.890625 C 0.921875 -0.890625 0.988281 -0.90625 1.03125 -0.9375 C 1.070312 -0.96875 1.09375 -1.019531 1.09375 -1.09375 C 1.09375 -1.09375 1.097656 -1.09375 1.109375 -1.09375 C 1.117188 -1.09375 1.125 -1.09375 1.125 -1.09375 L 1.125 -0.75 C 1.125 -0.6875 1.125 -0.640625 1.125 -0.609375 C 1.125 -0.609375 1.117188 -0.609375 1.109375 -0.609375 C 1.097656 -0.609375 1.09375 -0.609375 1.09375 -0.609375 C 1.09375 -0.679688 1.070312 -0.734375 1.03125 -0.765625 C 0.988281 -0.804688 0.921875 -0.828125 0.828125 -0.828125 L 0.546875 -0.828125 L 0.546875 -0.21875 C 0.546875 -0.15625 0.554688 -0.113281 0.578125 -0.09375 C 0.597656 -0.0703125 0.644531 -0.0625 0.71875 -0.0625 L 0.890625 -0.0625 C 0.992188 -0.0625 1.078125 -0.0859375 1.140625 -0.140625 C 1.210938 -0.203125 1.257812 -0.289062 1.28125 -0.40625 Z M 1.28125 -0.40625 "/></g></g></g><g fill="#fcffe7" fill-opacity="1"><g transform="translate(59.843345, 70.252645)"><g><path d="M 0.90625 -0.9375 C 1.050781 -0.925781 1.164062 -0.878906 1.25 -0.796875 C 1.332031 -0.710938 1.375 -0.609375 1.375 -0.484375 C 1.375 -0.390625 1.347656 -0.304688 1.296875 -0.234375 C 1.253906 -0.160156 1.191406 -0.0976562 1.109375 -0.046875 C 1.023438 -0.00390625 0.929688 0.015625 0.828125 0.015625 C 0.765625 0.015625 0.703125 0.0078125 0.640625 0 C 0.609375 0 0.578125 0 0.546875 0 C 0.515625 0 0.476562 0 0.4375 0 L 0.25 0 C 0.21875 0 0.171875 0 0.109375 0 C 0.109375 0 0.109375 -0.00390625 0.109375 -0.015625 C 0.109375 -0.0234375 0.109375 -0.03125 0.109375 -0.03125 C 0.171875 -0.03125 0.21875 -0.0351562 0.25 -0.046875 C 0.28125 -0.0546875 0.300781 -0.0703125 0.3125 -0.09375 C 0.320312 -0.125 0.328125 -0.164062 0.328125 -0.21875 L 0.328125 -1.4375 C 0.328125 -1.5 0.320312 -1.539062 0.3125 -1.5625 C 0.300781 -1.582031 0.28125 -1.597656 0.25 -1.609375 C 0.21875 -1.617188 0.171875 -1.625 0.109375 -1.625 C 0.109375 -1.625 0.109375 -1.628906 0.109375 -1.640625 C 0.109375 -1.648438 0.109375 -1.65625 0.109375 -1.65625 L 0.25 -1.65625 C 0.320312 -1.65625 0.382812 -1.65625 0.4375 -1.65625 C 0.476562 -1.65625 0.53125 -1.65625 0.59375 -1.65625 C 0.613281 -1.65625 0.632812 -1.65625 0.65625 -1.65625 C 0.6875 -1.664062 0.71875 -1.671875 0.75 -1.671875 C 0.90625 -1.671875 1.019531 -1.640625 1.09375 -1.578125 C 1.175781 -1.515625 1.21875 -1.425781 1.21875 -1.3125 C 1.21875 -1.226562 1.1875 -1.148438 1.125 -1.078125 C 1.070312 -1.015625 1 -0.96875 0.90625 -0.9375 Z M 0.703125 -1.625 C 0.660156 -1.625 0.628906 -1.617188 0.609375 -1.609375 C 0.585938 -1.597656 0.570312 -1.578125 0.5625 -1.546875 C 0.550781 -1.523438 0.546875 -1.488281 0.546875 -1.4375 L 0.546875 -0.9375 L 0.65625 -0.9375 C 0.769531 -0.9375 0.859375 -0.96875 0.921875 -1.03125 C 0.984375 -1.101562 1.015625 -1.191406 1.015625 -1.296875 C 1.015625 -1.398438 0.988281 -1.476562 0.9375 -1.53125 C 0.882812 -1.59375 0.804688 -1.625 0.703125 -1.625 Z M 0.78125 -0.046875 C 0.90625 -0.046875 1 -0.078125 1.0625 -0.140625 C 1.125 -0.203125 1.15625 -0.296875 1.15625 -0.421875 C 1.15625 -0.554688 1.113281 -0.664062 1.03125 -0.75 C 0.957031 -0.832031 0.851562 -0.875 0.71875 -0.875 C 0.675781 -0.875 0.617188 -0.867188 0.546875 -0.859375 L 0.546875 -0.21875 C 0.546875 -0.175781 0.550781 -0.140625 0.5625 -0.109375 C 0.570312 -0.0859375 0.59375 -0.0703125 0.625 -0.0625 C 0.664062 -0.0507812 0.71875 -0.046875 0.78125 -0.046875 Z M 0.78125 -0.046875 "/></g></g></g><g fill="#fcffe7" fill-opacity="1"><g transform="translate(62.810656, 70.252645)"><g/></g></g><g fill="#fcffe7" fill-opacity="1"><g transform="translate(64.88777, 70.252645)"><g><path d="M 0.828125 0.015625 C 0.773438 0.015625 0.710938 0.0078125 0.640625 0 C 0.609375 0 0.570312 0 0.53125 0 C 0.5 0 0.457031 0 0.40625 0 L 0.21875 0 C 0.1875 0 0.144531 0 0.09375 0 C 0.0820312 0 0.078125 -0.00390625 0.078125 -0.015625 C 0.078125 -0.0234375 0.0820312 -0.03125 0.09375 -0.03125 C 0.15625 -0.03125 0.203125 -0.0351562 0.234375 -0.046875 C 0.265625 -0.0546875 0.285156 -0.0703125 0.296875 -0.09375 C 0.304688 -0.125 0.3125 -0.164062 0.3125 -0.21875 L 0.3125 -1.4375 C 0.3125 -1.5 0.304688 -1.539062 0.296875 -1.5625 C 0.285156 -1.582031 0.265625 -1.597656 0.234375 -1.609375 C 0.203125 -1.617188 0.15625 -1.625 0.09375 -1.625 C 0.0820312 -1.625 0.078125 -1.628906 0.078125 -1.640625 C 0.078125 -1.648438 0.0820312 -1.65625 0.09375 -1.65625 L 0.21875 -1.65625 C 0.300781 -1.65625 0.363281 -1.65625 0.40625 -1.65625 C 0.476562 -1.65625 0.546875 -1.65625 0.609375 -1.65625 C 0.703125 -1.664062 0.757812 -1.671875 0.78125 -1.671875 C 0.96875 -1.671875 1.128906 -1.632812 1.265625 -1.5625 C 1.410156 -1.488281 1.519531 -1.390625 1.59375 -1.265625 C 1.675781 -1.148438 1.71875 -1.015625 1.71875 -0.859375 C 1.71875 -0.679688 1.675781 -0.523438 1.59375 -0.390625 C 1.519531 -0.265625 1.410156 -0.164062 1.265625 -0.09375 C 1.128906 -0.0195312 0.984375 0.015625 0.828125 0.015625 Z M 0.796875 -0.03125 C 0.929688 -0.03125 1.046875 -0.0625 1.140625 -0.125 C 1.242188 -0.1875 1.320312 -0.273438 1.375 -0.390625 C 1.4375 -0.503906 1.46875 -0.640625 1.46875 -0.796875 C 1.46875 -0.953125 1.441406 -1.09375 1.390625 -1.21875 C 1.335938 -1.34375 1.257812 -1.441406 1.15625 -1.515625 C 1.0625 -1.585938 0.945312 -1.625 0.8125 -1.625 C 0.738281 -1.625 0.679688 -1.617188 0.640625 -1.609375 C 0.597656 -1.597656 0.566406 -1.578125 0.546875 -1.546875 C 0.523438 -1.523438 0.515625 -1.488281 0.515625 -1.4375 L 0.515625 -0.25 C 0.515625 -0.164062 0.53125 -0.109375 0.5625 -0.078125 C 0.601562 -0.046875 0.679688 -0.03125 0.796875 -0.03125 Z M 0.796875 -0.03125 "/></g></g></g><g fill="#fcffe7" fill-opacity="1"><g transform="translate(68.188907, 70.252645)"><g><path d="M 1.28125 -0.40625 C 1.28125 -0.40625 1.285156 -0.40625 1.296875 -0.40625 C 1.304688 -0.40625 1.3125 -0.398438 1.3125 -0.390625 C 1.289062 -0.265625 1.28125 -0.148438 1.28125 -0.046875 C 1.28125 -0.0234375 1.273438 -0.0078125 1.265625 0 C 1.265625 0 1.257812 0 1.25 0 L 0.109375 0 C 0.109375 0 0.109375 -0.00390625 0.109375 -0.015625 C 0.109375 -0.0234375 0.109375 -0.03125 0.109375 -0.03125 C 0.171875 -0.03125 0.21875 -0.0351562 0.25 -0.046875 C 0.28125 -0.0546875 0.300781 -0.0703125 0.3125 -0.09375 C 0.320312 -0.125 0.328125 -0.164062 0.328125 -0.21875 L 0.328125 -1.4375 C 0.328125 -1.5 0.320312 -1.539062 0.3125 -1.5625 C 0.300781 -1.582031 0.28125 -1.597656 0.25 -1.609375 C 0.21875 -1.617188 0.171875 -1.625 0.109375 -1.625 C 0.109375 -1.625 0.109375 -1.628906 0.109375 -1.640625 C 0.109375 -1.648438 0.109375 -1.65625 0.109375 -1.65625 L 1.203125 -1.65625 C 1.210938 -1.65625 1.21875 -1.648438 1.21875 -1.640625 L 1.234375 -1.296875 C 1.234375 -1.296875 1.226562 -1.296875 1.21875 -1.296875 C 1.207031 -1.296875 1.203125 -1.296875 1.203125 -1.296875 C 1.179688 -1.390625 1.144531 -1.460938 1.09375 -1.515625 C 1.039062 -1.566406 0.96875 -1.59375 0.875 -1.59375 L 0.734375 -1.59375 C 0.660156 -1.59375 0.609375 -1.582031 0.578125 -1.5625 C 0.554688 -1.539062 0.546875 -1.5 0.546875 -1.4375 L 0.546875 -0.890625 L 0.828125 -0.890625 C 0.921875 -0.890625 0.988281 -0.90625 1.03125 -0.9375 C 1.070312 -0.96875 1.09375 -1.019531 1.09375 -1.09375 C 1.09375 -1.09375 1.097656 -1.09375 1.109375 -1.09375 C 1.117188 -1.09375 1.125 -1.09375 1.125 -1.09375 L 1.125 -0.75 C 1.125 -0.6875 1.125 -0.640625 1.125 -0.609375 C 1.125 -0.609375 1.117188 -0.609375 1.109375 -0.609375 C 1.097656 -0.609375 1.09375 -0.609375 1.09375 -0.609375 C 1.09375 -0.679688 1.070312 -0.734375 1.03125 -0.765625 C 0.988281 -0.804688 0.921875 -0.828125 0.828125 -0.828125 L 0.546875 -0.828125 L 0.546875 -0.21875 C 0.546875 -0.15625 0.554688 -0.113281 0.578125 -0.09375 C 0.597656 -0.0703125 0.644531 -0.0625 0.71875 -0.0625 L 0.890625 -0.0625 C 0.992188 -0.0625 1.078125 -0.0859375 1.140625 -0.140625 C 1.210938 -0.203125 1.257812 -0.289062 1.28125 -0.40625 Z M 1.28125 -0.40625 "/></g></g></g><g fill="#fcffe7" fill-opacity="1"><g transform="translate(71.082035, 70.252645)"><g><path d="M 1.78125 -1.65625 C 1.78125 -1.65625 1.78125 -1.648438 1.78125 -1.640625 C 1.78125 -1.628906 1.78125 -1.625 1.78125 -1.625 C 1.644531 -1.625 1.546875 -1.546875 1.484375 -1.390625 L 0.953125 0 C 0.941406 0.0078125 0.929688 0.015625 0.921875 0.015625 C 0.898438 0.015625 0.890625 0.0078125 0.890625 0 L 0.21875 -1.4375 C 0.1875 -1.507812 0.15625 -1.554688 0.125 -1.578125 C 0.09375 -1.609375 0.0507812 -1.625 0 -1.625 C 0 -1.625 0 -1.628906 0 -1.640625 C 0 -1.648438 0 -1.65625 0 -1.65625 L 0.078125 -1.65625 C 0.128906 -1.65625 0.175781 -1.65625 0.21875 -1.65625 C 0.3125 -1.65625 0.40625 -1.65625 0.5 -1.65625 C 0.519531 -1.65625 0.554688 -1.65625 0.609375 -1.65625 C 0.609375 -1.65625 0.609375 -1.648438 0.609375 -1.640625 C 0.609375 -1.628906 0.609375 -1.625 0.609375 -1.625 C 0.492188 -1.625 0.4375 -1.59375 0.4375 -1.53125 C 0.4375 -1.5 0.445312 -1.46875 0.46875 -1.4375 L 0.984375 -0.296875 L 1.421875 -1.390625 C 1.429688 -1.429688 1.4375 -1.46875 1.4375 -1.5 C 1.4375 -1.582031 1.375 -1.625 1.25 -1.625 C 1.238281 -1.625 1.234375 -1.628906 1.234375 -1.640625 C 1.234375 -1.648438 1.238281 -1.65625 1.25 -1.65625 L 1.359375 -1.65625 C 1.421875 -1.65625 1.476562 -1.65625 1.53125 -1.65625 C 1.570312 -1.65625 1.613281 -1.65625 1.65625 -1.65625 Z M 1.78125 -1.65625 "/></g></g></g><g fill="#fcffe7" fill-opacity="1"><g transform="translate(74.298391, 70.252645)"><g><path d="M 1.28125 -0.40625 C 1.28125 -0.40625 1.285156 -0.40625 1.296875 -0.40625 C 1.304688 -0.40625 1.3125 -0.398438 1.3125 -0.390625 C 1.289062 -0.265625 1.28125 -0.148438 1.28125 -0.046875 C 1.28125 -0.0234375 1.273438 -0.0078125 1.265625 0 C 1.265625 0 1.257812 0 1.25 0 L 0.109375 0 C 0.109375 0 0.109375 -0.00390625 0.109375 -0.015625 C 0.109375 -0.0234375 0.109375 -0.03125 0.109375 -0.03125 C 0.171875 -0.03125 0.21875 -0.0351562 0.25 -0.046875 C 0.28125 -0.0546875 0.300781 -0.0703125 0.3125 -0.09375 C 0.320312 -0.125 0.328125 -0.164062 0.328125 -0.21875 L 0.328125 -1.4375 C 0.328125 -1.5 0.320312 -1.539062 0.3125 -1.5625 C 0.300781 -1.582031 0.28125 -1.597656 0.25 -1.609375 C 0.21875 -1.617188 0.171875 -1.625 0.109375 -1.625 C 0.109375 -1.625 0.109375 -1.628906 0.109375 -1.640625 C 0.109375 -1.648438 0.109375 -1.65625 0.109375 -1.65625 L 1.203125 -1.65625 C 1.210938 -1.65625 1.21875 -1.648438 1.21875 -1.640625 L 1.234375 -1.296875 C 1.234375 -1.296875 1.226562 -1.296875 1.21875 -1.296875 C 1.207031 -1.296875 1.203125 -1.296875 1.203125 -1.296875 C 1.179688 -1.390625 1.144531 -1.460938 1.09375 -1.515625 C 1.039062 -1.566406 0.96875 -1.59375 0.875 -1.59375 L 0.734375 -1.59375 C 0.660156 -1.59375 0.609375 -1.582031 0.578125 -1.5625 C 0.554688 -1.539062 0.546875 -1.5 0.546875 -1.4375 L 0.546875 -0.890625 L 0.828125 -0.890625 C 0.921875 -0.890625 0.988281 -0.90625 1.03125 -0.9375 C 1.070312 -0.96875 1.09375 -1.019531 1.09375 -1.09375 C 1.09375 -1.09375 1.097656 -1.09375 1.109375 -1.09375 C 1.117188 -1.09375 1.125 -1.09375 1.125 -1.09375 L 1.125 -0.75 C 1.125 -0.6875 1.125 -0.640625 1.125 -0.609375 C 1.125 -0.609375 1.117188 -0.609375 1.109375 -0.609375 C 1.097656 -0.609375 1.09375 -0.609375 1.09375 -0.609375 C 1.09375 -0.679688 1.070312 -0.734375 1.03125 -0.765625 C 0.988281 -0.804688 0.921875 -0.828125 0.828125 -0.828125 L 0.546875 -0.828125 L 0.546875 -0.21875 C 0.546875 -0.15625 0.554688 -0.113281 0.578125 -0.09375 C 0.597656 -0.0703125 0.644531 -0.0625 0.71875 -0.0625 L 0.890625 -0.0625 C 0.992188 -0.0625 1.078125 -0.0859375 1.140625 -0.140625 C 1.210938 -0.203125 1.257812 -0.289062 1.28125 -0.40625 Z M 1.28125 -0.40625 "/></g></g></g><g fill="#fcffe7" fill-opacity="1"><g transform="translate(77.19152, 70.252645)"><g><path d="M 0.515625 -0.21875 C 0.515625 -0.175781 0.519531 -0.140625 0.53125 -0.109375 C 0.539062 -0.0859375 0.554688 -0.0703125 0.578125 -0.0625 C 0.609375 -0.0625 0.648438 -0.0625 0.703125 -0.0625 L 0.9375 -0.0625 C 1.050781 -0.0625 1.144531 -0.09375 1.21875 -0.15625 C 1.289062 -0.226562 1.335938 -0.320312 1.359375 -0.4375 C 1.359375 -0.4375 1.363281 -0.4375 1.375 -0.4375 C 1.382812 -0.4375 1.390625 -0.429688 1.390625 -0.421875 C 1.367188 -0.265625 1.359375 -0.140625 1.359375 -0.046875 C 1.359375 -0.0234375 1.351562 -0.0078125 1.34375 0 C 1.34375 0 1.335938 0 1.328125 0 L 0.09375 0 C 0.0820312 0 0.078125 -0.00390625 0.078125 -0.015625 C 0.078125 -0.0234375 0.0820312 -0.03125 0.09375 -0.03125 C 0.15625 -0.03125 0.195312 -0.0351562 0.21875 -0.046875 C 0.25 -0.0546875 0.269531 -0.0703125 0.28125 -0.09375 C 0.289062 -0.125 0.296875 -0.164062 0.296875 -0.21875 L 0.296875 -1.4375 C 0.296875 -1.5 0.289062 -1.539062 0.28125 -1.5625 C 0.269531 -1.582031 0.25 -1.597656 0.21875 -1.609375 C 0.195312 -1.617188 0.15625 -1.625 0.09375 -1.625 C 0.0820312 -1.625 0.078125 -1.628906 0.078125 -1.640625 C 0.078125 -1.648438 0.0820312 -1.65625 0.09375 -1.65625 L 0.21875 -1.65625 C 0.300781 -1.65625 0.363281 -1.65625 0.40625 -1.65625 C 0.457031 -1.65625 0.519531 -1.65625 0.59375 -1.65625 L 0.734375 -1.65625 C 0.734375 -1.65625 0.734375 -1.648438 0.734375 -1.640625 C 0.734375 -1.628906 0.734375 -1.625 0.734375 -1.625 C 0.671875 -1.625 0.625 -1.617188 0.59375 -1.609375 C 0.5625 -1.597656 0.539062 -1.578125 0.53125 -1.546875 C 0.519531 -1.523438 0.515625 -1.488281 0.515625 -1.4375 Z M 0.515625 -0.21875 "/></g></g></g><g fill="#fcffe7" fill-opacity="1"><g transform="translate(80.071402, 70.252645)"><g><path d="M 0.96875 0.03125 C 0.800781 0.03125 0.65625 -0.00390625 0.53125 -0.078125 C 0.40625 -0.160156 0.304688 -0.265625 0.234375 -0.390625 C 0.160156 -0.523438 0.125 -0.671875 0.125 -0.828125 C 0.125 -1.015625 0.171875 -1.171875 0.265625 -1.296875 C 0.359375 -1.429688 0.476562 -1.53125 0.625 -1.59375 C 0.769531 -1.65625 0.914062 -1.6875 1.0625 -1.6875 C 1.226562 -1.6875 1.375 -1.644531 1.5 -1.5625 C 1.632812 -1.488281 1.734375 -1.382812 1.796875 -1.25 C 1.867188 -1.125 1.90625 -0.988281 1.90625 -0.84375 C 1.90625 -0.6875 1.863281 -0.539062 1.78125 -0.40625 C 1.695312 -0.269531 1.582031 -0.160156 1.4375 -0.078125 C 1.289062 -0.00390625 1.132812 0.03125 0.96875 0.03125 Z M 1.0625 -0.03125 C 1.175781 -0.03125 1.273438 -0.0546875 1.359375 -0.109375 C 1.453125 -0.171875 1.523438 -0.257812 1.578125 -0.375 C 1.628906 -0.488281 1.65625 -0.617188 1.65625 -0.765625 C 1.65625 -0.929688 1.625 -1.078125 1.5625 -1.203125 C 1.507812 -1.335938 1.429688 -1.441406 1.328125 -1.515625 C 1.222656 -1.585938 1.097656 -1.625 0.953125 -1.625 C 0.773438 -1.625 0.632812 -1.5625 0.53125 -1.4375 C 0.425781 -1.3125 0.375 -1.140625 0.375 -0.921875 C 0.375 -0.753906 0.398438 -0.601562 0.453125 -0.46875 C 0.515625 -0.332031 0.597656 -0.222656 0.703125 -0.140625 C 0.804688 -0.0664062 0.925781 -0.03125 1.0625 -0.03125 Z M 1.0625 -0.03125 "/></g></g></g><g fill="#fcffe7" fill-opacity="1"><g transform="translate(83.55799, 70.252645)"><g><path d="M 0.53125 -0.21875 C 0.53125 -0.164062 0.535156 -0.125 0.546875 -0.09375 C 0.566406 -0.0703125 0.59375 -0.0546875 0.625 -0.046875 C 0.664062 -0.0351562 0.734375 -0.03125 0.828125 -0.03125 C 0.828125 -0.03125 0.828125 -0.0234375 0.828125 -0.015625 C 0.828125 -0.00390625 0.828125 0 0.828125 0 C 0.753906 0 0.695312 0 0.65625 0 L 0.234375 0 C 0.203125 0 0.160156 0 0.109375 0 C 0.0976562 0 0.09375 -0.00390625 0.09375 -0.015625 C 0.09375 -0.0234375 0.0976562 -0.03125 0.109375 -0.03125 C 0.171875 -0.03125 0.210938 -0.0351562 0.234375 -0.046875 C 0.265625 -0.0546875 0.285156 -0.0703125 0.296875 -0.09375 C 0.304688 -0.125 0.3125 -0.164062 0.3125 -0.21875 L 0.3125 -1.4375 C 0.3125 -1.5 0.304688 -1.539062 0.296875 -1.5625 C 0.285156 -1.582031 0.265625 -1.597656 0.234375 -1.609375 C 0.210938 -1.617188 0.171875 -1.625 0.109375 -1.625 C 0.0976562 -1.625 0.09375 -1.628906 0.09375 -1.640625 C 0.09375 -1.648438 0.0976562 -1.65625 0.109375 -1.65625 L 0.234375 -1.65625 C 0.316406 -1.65625 0.378906 -1.65625 0.421875 -1.65625 C 0.460938 -1.65625 0.515625 -1.65625 0.578125 -1.65625 C 0.597656 -1.65625 0.628906 -1.65625 0.671875 -1.65625 C 0.710938 -1.664062 0.753906 -1.671875 0.796875 -1.671875 C 0.960938 -1.671875 1.09375 -1.632812 1.1875 -1.5625 C 1.289062 -1.488281 1.34375 -1.375 1.34375 -1.21875 C 1.34375 -1.101562 1.3125 -1.003906 1.25 -0.921875 C 1.195312 -0.847656 1.125 -0.789062 1.03125 -0.75 C 0.945312 -0.71875 0.859375 -0.703125 0.765625 -0.703125 C 0.710938 -0.703125 0.664062 -0.703125 0.625 -0.703125 C 0.625 -0.703125 0.625 -0.707031 0.625 -0.71875 C 0.625 -0.726562 0.625 -0.734375 0.625 -0.734375 C 0.625 -0.742188 0.628906 -0.75 0.640625 -0.75 C 0.671875 -0.738281 0.703125 -0.734375 0.734375 -0.734375 C 0.835938 -0.734375 0.925781 -0.769531 1 -0.84375 C 1.070312 -0.925781 1.109375 -1.035156 1.109375 -1.171875 C 1.109375 -1.316406 1.070312 -1.425781 1 -1.5 C 0.925781 -1.582031 0.832031 -1.625 0.71875 -1.625 C 0.664062 -1.625 0.625 -1.617188 0.59375 -1.609375 C 0.570312 -1.597656 0.554688 -1.578125 0.546875 -1.546875 C 0.535156 -1.523438 0.53125 -1.488281 0.53125 -1.4375 Z M 0.53125 -0.21875 "/></g></g></g><g fill="#fcffe7" fill-opacity="1"><g transform="translate(86.461714, 70.252645)"><g><path d="M 1.28125 -0.40625 C 1.28125 -0.40625 1.285156 -0.40625 1.296875 -0.40625 C 1.304688 -0.40625 1.3125 -0.398438 1.3125 -0.390625 C 1.289062 -0.265625 1.28125 -0.148438 1.28125 -0.046875 C 1.28125 -0.0234375 1.273438 -0.0078125 1.265625 0 C 1.265625 0 1.257812 0 1.25 0 L 0.109375 0 C 0.109375 0 0.109375 -0.00390625 0.109375 -0.015625 C 0.109375 -0.0234375 0.109375 -0.03125 0.109375 -0.03125 C 0.171875 -0.03125 0.21875 -0.0351562 0.25 -0.046875 C 0.28125 -0.0546875 0.300781 -0.0703125 0.3125 -0.09375 C 0.320312 -0.125 0.328125 -0.164062 0.328125 -0.21875 L 0.328125 -1.4375 C 0.328125 -1.5 0.320312 -1.539062 0.3125 -1.5625 C 0.300781 -1.582031 0.28125 -1.597656 0.25 -1.609375 C 0.21875 -1.617188 0.171875 -1.625 0.109375 -1.625 C 0.109375 -1.625 0.109375 -1.628906 0.109375 -1.640625 C 0.109375 -1.648438 0.109375 -1.65625 0.109375 -1.65625 L 1.203125 -1.65625 C 1.210938 -1.65625 1.21875 -1.648438 1.21875 -1.640625 L 1.234375 -1.296875 C 1.234375 -1.296875 1.226562 -1.296875 1.21875 -1.296875 C 1.207031 -1.296875 1.203125 -1.296875 1.203125 -1.296875 C 1.179688 -1.390625 1.144531 -1.460938 1.09375 -1.515625 C 1.039062 -1.566406 0.96875 -1.59375 0.875 -1.59375 L 0.734375 -1.59375 C 0.660156 -1.59375 0.609375 -1.582031 0.578125 -1.5625 C 0.554688 -1.539062 0.546875 -1.5 0.546875 -1.4375 L 0.546875 -0.890625 L 0.828125 -0.890625 C 0.921875 -0.890625 0.988281 -0.90625 1.03125 -0.9375 C 1.070312 -0.96875 1.09375 -1.019531 1.09375 -1.09375 C 1.09375 -1.09375 1.097656 -1.09375 1.109375 -1.09375 C 1.117188 -1.09375 1.125 -1.09375 1.125 -1.09375 L 1.125 -0.75 C 1.125 -0.6875 1.125 -0.640625 1.125 -0.609375 C 1.125 -0.609375 1.117188 -0.609375 1.109375 -0.609375 C 1.097656 -0.609375 1.09375 -0.609375 1.09375 -0.609375 C 1.09375 -0.679688 1.070312 -0.734375 1.03125 -0.765625 C 0.988281 -0.804688 0.921875 -0.828125 0.828125 -0.828125 L 0.546875 -0.828125 L 0.546875 -0.21875 C 0.546875 -0.15625 0.554688 -0.113281 0.578125 -0.09375 C 0.597656 -0.0703125 0.644531 -0.0625 0.71875 -0.0625 L 0.890625 -0.0625 C 0.992188 -0.0625 1.078125 -0.0859375 1.140625 -0.140625 C 1.210938 -0.203125 1.257812 -0.289062 1.28125 -0.40625 Z M 1.28125 -0.40625 "/></g></g></g><g fill="#fcffe7" fill-opacity="1"><g transform="translate(89.354839, 70.252645)"><g><path d="M 1.828125 -0.03125 C 1.835938 -0.03125 1.84375 -0.0234375 1.84375 -0.015625 C 1.84375 -0.00390625 1.835938 0 1.828125 0 L 1.453125 0 C 1.410156 0 1.328125 -0.0703125 1.203125 -0.21875 C 1.085938 -0.375 0.945312 -0.582031 0.78125 -0.84375 C 0.75 -0.84375 0.710938 -0.84375 0.671875 -0.84375 C 0.640625 -0.84375 0.597656 -0.84375 0.546875 -0.84375 L 0.546875 -0.21875 C 0.546875 -0.164062 0.550781 -0.125 0.5625 -0.09375 C 0.570312 -0.0703125 0.585938 -0.0546875 0.609375 -0.046875 C 0.640625 -0.0351562 0.6875 -0.03125 0.75 -0.03125 C 0.757812 -0.03125 0.765625 -0.0234375 0.765625 -0.015625 C 0.765625 -0.00390625 0.757812 0 0.75 0 C 0.695312 0 0.65625 0 0.625 0 L 0.25 0 C 0.21875 0 0.171875 0 0.109375 0 C 0.109375 0 0.109375 -0.00390625 0.109375 -0.015625 C 0.109375 -0.0234375 0.109375 -0.03125 0.109375 -0.03125 C 0.171875 -0.03125 0.21875 -0.0351562 0.25 -0.046875 C 0.28125 -0.0546875 0.300781 -0.0703125 0.3125 -0.09375 C 0.320312 -0.125 0.328125 -0.164062 0.328125 -0.21875 L 0.328125 -1.4375 C 0.328125 -1.5 0.320312 -1.539062 0.3125 -1.5625 C 0.300781 -1.582031 0.28125 -1.597656 0.25 -1.609375 C 0.226562 -1.617188 0.179688 -1.625 0.109375 -1.625 C 0.109375 -1.625 0.109375 -1.628906 0.109375 -1.640625 C 0.109375 -1.648438 0.109375 -1.65625 0.109375 -1.65625 L 0.25 -1.65625 C 0.320312 -1.65625 0.382812 -1.65625 0.4375 -1.65625 C 0.46875 -1.65625 0.492188 -1.65625 0.515625 -1.65625 C 0.546875 -1.65625 0.570312 -1.65625 0.59375 -1.65625 C 0.65625 -1.664062 0.710938 -1.671875 0.765625 -1.671875 C 0.910156 -1.671875 1.023438 -1.640625 1.109375 -1.578125 C 1.191406 -1.515625 1.234375 -1.429688 1.234375 -1.328125 C 1.234375 -1.242188 1.207031 -1.164062 1.15625 -1.09375 C 1.113281 -1.019531 1.050781 -0.960938 0.96875 -0.921875 C 1.113281 -0.691406 1.234375 -0.515625 1.328125 -0.390625 C 1.429688 -0.265625 1.519531 -0.171875 1.59375 -0.109375 C 1.675781 -0.0546875 1.753906 -0.03125 1.828125 -0.03125 Z M 0.546875 -0.90625 C 0.609375 -0.90625 0.660156 -0.90625 0.703125 -0.90625 C 0.816406 -0.90625 0.894531 -0.925781 0.9375 -0.96875 C 0.988281 -1.019531 1.015625 -1.109375 1.015625 -1.234375 C 1.015625 -1.378906 0.988281 -1.476562 0.9375 -1.53125 C 0.882812 -1.59375 0.8125 -1.625 0.71875 -1.625 C 0.664062 -1.625 0.628906 -1.617188 0.609375 -1.609375 C 0.585938 -1.597656 0.570312 -1.578125 0.5625 -1.546875 C 0.550781 -1.523438 0.546875 -1.488281 0.546875 -1.4375 Z M 0.546875 -0.90625 "/></g></g></g></svg>